<svg width="197" height="40" viewBox="0 0 197 40" fill="none" xmlns="http://www.w3.org/2000/svg">
<path d="M57.3556 26.7768H51.0453L50.0013 29.7957H46.6646L52.3619 13.9294H56.0617L61.7591 29.7957H58.3997L57.3556 26.7768ZM56.4931 24.2346L54.2005 17.6066L51.9078 24.2346H56.4931Z" fill="#8B8B8B"/>
<path d="M77.916 17.0391C79.4595 17.0391 80.7003 17.5158 81.6386 18.4691C82.5919 19.4073 83.0686 20.7238 83.0686 22.4187V29.7957H79.8908V22.8499C79.8908 21.8663 79.6411 21.1173 79.1417 20.6028C78.6423 20.0731 77.9614 19.8083 77.0988 19.8083C76.2363 19.8083 75.5478 20.0731 75.0333 20.6028C74.5339 21.1173 74.2842 21.8663 74.2842 22.8499V29.7957H71.1064V22.8499C71.1064 21.8663 70.8567 21.1173 70.3573 20.6028C69.858 20.0731 69.177 19.8083 68.3145 19.8083C67.4368 19.8083 66.7407 20.0731 66.2262 20.6028C65.7268 21.1173 65.4771 21.8663 65.4771 22.8499V29.7957H62.2993V17.2207H65.4771V18.7415C65.8857 18.2119 66.4078 17.7957 67.0433 17.4931C67.694 17.1904 68.4053 17.0391 69.177 17.0391C70.1606 17.0391 71.0383 17.2509 71.8101 17.6747C72.5818 18.0832 73.1795 18.6734 73.6032 19.4451C74.0118 18.7188 74.602 18.1362 75.3737 17.6974C76.1606 17.2585 77.008 17.0391 77.916 17.0391Z" fill="#8B8B8B"/>
<path d="M91.4641 17.0391C92.9622 17.0391 94.1728 17.5158 95.0959 18.4691C96.0189 19.4073 96.4805 20.7238 96.4805 22.4187V29.7957H93.3027V22.8499C93.3027 21.8512 93.053 21.087 92.5536 20.5574C92.0542 20.0126 91.3733 19.7402 90.5107 19.7402C89.6331 19.7402 88.937 20.0126 88.4225 20.5574C87.9231 21.087 87.6734 21.8512 87.6734 22.8499V29.7957H84.4956V17.2207H87.6734V18.7869C88.0971 18.2421 88.6343 17.8184 89.285 17.5158C89.9508 17.198 90.6772 17.0391 91.4641 17.0391Z" fill="#8B8B8B"/>
<path d="M99.5249 15.7226C98.965 15.7226 98.4959 15.5486 98.1176 15.2005C97.7544 14.8373 97.5728 14.3909 97.5728 13.8613C97.5728 13.3317 97.7544 12.8928 98.1176 12.5448C98.4959 12.1816 98.965 12 99.5249 12C100.085 12 100.546 12.1816 100.909 12.5448C101.288 12.8928 101.477 13.3317 101.477 13.8613C101.477 14.3909 101.288 14.8373 100.909 15.2005C100.546 15.5486 100.085 15.7226 99.5249 15.7226ZM101.091 17.2207V29.7957H97.9133V17.2207H101.091Z" fill="#8B8B8B"/>
<path d="M107.454 30C106.425 30 105.502 29.8184 104.685 29.4552C103.868 29.0769 103.217 28.57 102.733 27.9344C102.263 27.2989 102.006 26.5952 101.961 25.8235H105.161C105.222 26.3077 105.456 26.7087 105.865 27.0265C106.289 27.3443 106.811 27.5032 107.431 27.5032C108.036 27.5032 108.506 27.3821 108.839 27.14C109.187 26.8979 109.361 26.5876 109.361 26.2093C109.361 25.8008 109.149 25.4981 108.725 25.3014C108.316 25.0895 107.658 24.8625 106.75 24.6204C105.812 24.3934 105.04 24.1589 104.435 23.9168C103.845 23.6747 103.33 23.3039 102.891 22.8045C102.468 22.3052 102.256 21.6318 102.256 20.7844C102.256 20.0883 102.453 19.4527 102.846 18.8777C103.255 18.3026 103.83 17.8487 104.571 17.5158C105.328 17.1829 106.213 17.0164 107.227 17.0164C108.725 17.0164 109.92 17.3947 110.813 18.1513C111.706 18.8928 112.198 19.8991 112.289 21.1702H109.247C109.202 20.6709 108.99 20.2774 108.612 19.9899C108.248 19.6873 107.757 19.5359 107.136 19.5359C106.561 19.5359 106.115 19.6419 105.797 19.8537C105.494 20.0656 105.343 20.3607 105.343 20.739C105.343 21.1627 105.555 21.488 105.978 21.715C106.402 21.9269 107.06 22.1463 107.953 22.3733C108.861 22.6003 109.61 22.8348 110.2 23.0769C110.791 23.319 111.298 23.6974 111.721 24.2119C112.16 24.7112 112.387 25.377 112.402 26.2093C112.402 26.9357 112.198 27.5864 111.789 28.1614C111.396 28.7364 110.821 29.1904 110.064 29.5233C109.323 29.8411 108.453 30 107.454 30Z" fill="#8B8B8B"/>
<path d="M127.026 13.9521V16.517H120.42V20.5801H125.482V23.0996H120.42V29.7957H117.243V13.9521H127.026Z" fill="#8B8B8B"/>
<path d="M129.302 15.7226C128.742 15.7226 128.273 15.5486 127.894 15.2005C127.531 14.8373 127.35 14.3909 127.35 13.8613C127.35 13.3317 127.531 12.8928 127.894 12.5448C128.273 12.1816 128.742 12 129.302 12C129.862 12 130.323 12.1816 130.686 12.5448C131.065 12.8928 131.254 13.3317 131.254 13.8613C131.254 14.3909 131.065 14.8373 130.686 15.2005C130.323 15.5486 129.862 15.7226 129.302 15.7226ZM130.868 17.2207V29.7957H127.69V17.2207H130.868Z" fill="#8B8B8B"/>
<path d="M139.386 17.0391C140.884 17.0391 142.095 17.5158 143.018 18.4691C143.941 19.4073 144.403 20.7238 144.403 22.4187V29.7957H141.225V22.8499C141.225 21.8512 140.975 21.087 140.476 20.5574C139.976 20.0126 139.295 19.7402 138.433 19.7402C137.555 19.7402 136.859 20.0126 136.345 20.5574C135.845 21.087 135.596 21.8512 135.596 22.8499V29.7957H132.418V17.2207H135.596V18.7869C136.019 18.2421 136.556 17.8184 137.207 17.5158C137.873 17.198 138.599 17.0391 139.386 17.0391Z" fill="#8B8B8B"/>
<path d="M145.02 23.4628C145.02 22.1917 145.269 21.0643 145.769 20.0807C146.283 19.0971 146.972 18.3405 147.834 17.8108C148.712 17.2812 149.688 17.0164 150.762 17.0164C151.7 17.0164 152.518 17.2055 153.214 17.5839C153.925 17.9622 154.492 18.4388 154.916 19.0139V17.2207H158.117V29.7957H154.916V27.9571C154.508 28.5473 153.94 29.0391 153.214 29.4325C152.502 29.8108 151.678 30 150.74 30C149.68 30 148.712 29.7276 147.834 29.1829C146.972 28.6381 146.283 27.8739 145.769 26.8903C145.269 25.8916 145.02 24.7491 145.02 23.4628ZM154.916 23.5082C154.916 22.7364 154.765 22.0782 154.462 21.5334C154.159 20.9735 153.751 20.5498 153.236 20.2623C152.722 19.9596 152.17 19.8083 151.579 19.8083C150.989 19.8083 150.444 19.9521 149.945 20.2396C149.446 20.5271 149.037 20.9508 148.719 21.5107C148.417 22.0555 148.265 22.7062 148.265 23.4628C148.265 24.2194 148.417 24.8852 148.719 25.4603C149.037 26.0202 149.446 26.4515 149.945 26.7541C150.46 27.0567 151.004 27.2081 151.579 27.2081C152.17 27.2081 152.722 27.0643 153.236 26.7768C153.751 26.4741 154.159 26.0504 154.462 25.5057C154.765 24.9458 154.916 24.28 154.916 23.5082Z" fill="#8B8B8B"/>
<path d="M166.599 17.0391C168.097 17.0391 169.308 17.5158 170.231 18.4691C171.154 19.4073 171.615 20.7238 171.615 22.4187V29.7957H168.437V22.8499C168.437 21.8512 168.188 21.087 167.688 20.5574C167.189 20.0126 166.508 19.7402 165.646 19.7402C164.768 19.7402 164.072 20.0126 163.557 20.5574C163.058 21.087 162.808 21.8512 162.808 22.8499V29.7957H159.63V17.2207H162.808V18.7869C163.232 18.2421 163.769 17.8184 164.42 17.5158C165.086 17.198 165.812 17.0391 166.599 17.0391Z" fill="#8B8B8B"/>
<path d="M172.231 23.5082C172.231 22.2068 172.496 21.0719 173.026 20.1034C173.555 19.1198 174.289 18.3632 175.227 17.8335C176.166 17.2888 177.24 17.0164 178.451 17.0164C180.009 17.0164 181.295 17.4098 182.309 18.1967C183.338 18.9685 184.027 20.058 184.375 21.4653H180.947C180.766 20.9206 180.456 20.4968 180.017 20.1942C179.593 19.8764 179.063 19.7175 178.428 19.7175C177.52 19.7175 176.801 20.0504 176.271 20.7163C175.742 21.367 175.477 22.2976 175.477 23.5082C175.477 24.7037 175.742 25.6343 176.271 26.3001C176.801 26.9508 177.52 27.2762 178.428 27.2762C179.714 27.2762 180.554 26.7011 180.947 25.5511H184.375C184.027 26.913 183.338 27.995 182.309 28.797C181.28 29.599 179.994 30 178.451 30C177.24 30 176.166 29.7352 175.227 29.2055C174.289 28.6608 173.555 27.9042 173.026 26.9357C172.496 25.9521 172.231 24.8096 172.231 23.5082Z" fill="#8B8B8B"/>
<path d="M196.804 23.2358C196.804 23.6898 196.774 24.0984 196.713 24.4615H187.52C187.596 25.3695 187.914 26.0807 188.473 26.5952C189.033 27.1097 189.722 27.367 190.539 27.367C191.719 27.367 192.559 26.86 193.059 25.8462H196.486C196.123 27.0567 195.427 28.0555 194.398 28.8424C193.369 29.6141 192.105 30 190.607 30C189.396 30 188.307 29.7352 187.338 29.2055C186.385 28.6608 185.636 27.8966 185.091 26.913C184.562 25.9294 184.297 24.7945 184.297 23.5082C184.297 22.2068 184.562 21.0643 185.091 20.0807C185.621 19.0971 186.362 18.3405 187.316 17.8108C188.269 17.2812 189.366 17.0164 190.607 17.0164C191.803 17.0164 192.869 17.2736 193.808 17.7881C194.761 18.3026 195.495 19.0366 196.009 19.9899C196.539 20.9281 196.804 22.0101 196.804 23.2358ZM193.512 22.3279C193.497 21.5107 193.202 20.86 192.627 20.3758C192.052 19.8764 191.349 19.6267 190.516 19.6267C189.729 19.6267 189.064 19.8689 188.519 20.3531C187.989 20.8222 187.664 21.4805 187.543 22.3279H193.512Z" fill="#8B8B8B"/>
<mask id="mask0_930_5963" style="mask-type:luminance" maskUnits="userSpaceOnUse" x="0" y="0" width="39" height="40">
<path d="M38.6646 0H0.664551V40H38.6646V0Z" fill="white"/>
</mask>
<g mask="url(#mask0_930_5963)">
<path d="M22.3852 3.13196C22.3852 3.18612 22.3852 3.24029 22.395 3.29446C22.395 3.324 22.395 3.35847 22.3999 3.38802C22.3999 3.43726 22.4096 3.4865 22.4145 3.53575C22.4145 3.57022 22.4194 3.59976 22.4243 3.63423C22.4291 3.68348 22.434 3.7278 22.4389 3.77704C22.4389 3.81151 22.4487 3.84105 22.4535 3.87552C22.4584 3.92477 22.4682 3.96909 22.4731 4.01833C22.4779 4.0528 22.4828 4.08234 22.4877 4.11681C22.4975 4.16606 22.5072 4.2153 22.517 4.26454C22.5219 4.29409 22.5267 4.32363 22.5365 4.35318C22.5463 4.40735 22.5609 4.46644 22.5755 4.52061C22.5804 4.5403 22.5853 4.56492 22.5902 4.58462C22.6097 4.66341 22.6292 4.73727 22.6487 4.81114C22.6536 4.83084 22.6585 4.85053 22.6634 4.87023C22.678 4.9244 22.6975 4.98349 22.7122 5.03766C22.7219 5.0672 22.7317 5.09675 22.7415 5.12629C22.7561 5.17061 22.7707 5.21985 22.7854 5.26417C22.7951 5.29372 22.8049 5.32819 22.8195 5.35773C22.8342 5.40205 22.8488 5.44145 22.8683 5.48577C22.8781 5.52024 22.8927 5.54978 22.9074 5.57933C22.922 5.61872 22.9415 5.66304 22.9562 5.70244C22.9708 5.73198 22.9806 5.76645 22.9952 5.796C23.0147 5.84032 23.0294 5.87971 23.0489 5.9191C23.0635 5.94865 23.0782 5.9782 23.0879 6.00774C23.1075 6.05206 23.127 6.09638 23.1514 6.13577C23.166 6.16532 23.1758 6.18994 23.1904 6.21949C23.2197 6.27365 23.2441 6.32782 23.2734 6.38199C23.2831 6.39676 23.288 6.41153 23.2978 6.43123C23.3368 6.50017 23.371 6.56419 23.41 6.63313C23.4247 6.65775 23.4393 6.68237 23.4539 6.70699C23.4783 6.74638 23.5027 6.7907 23.532 6.8301C23.5515 6.85964 23.5662 6.88919 23.5857 6.91381C23.6101 6.9532 23.6345 6.98767 23.6589 7.02707C23.6784 7.05661 23.6979 7.08616 23.7174 7.11571C23.7418 7.15018 23.7662 7.18957 23.7906 7.22404C23.8102 7.25359 23.8297 7.28313 23.8541 7.30775C23.8785 7.34222 23.9078 7.37669 23.9322 7.41116C23.9517 7.44071 23.9761 7.46533 23.9956 7.49488C24.0249 7.52935 24.0542 7.56382 24.0786 7.59829C24.0981 7.62291 24.1225 7.65245 24.142 7.67708C24.1713 7.71647 24.2054 7.75094 24.2396 7.79033C24.2591 7.81495 24.2786 7.83465 24.2982 7.85927C24.3518 7.91837 24.4006 7.97253 24.4543 8.0267C24.469 8.04147 24.4885 8.06117 24.5031 8.07594C24.5422 8.11534 24.5812 8.15473 24.6202 8.19412C24.6446 8.21875 24.6642 8.23844 24.6886 8.26307C24.7227 8.29754 24.7569 8.32708 24.791 8.36155C24.8154 8.38617 24.8398 8.40587 24.8691 8.43049C24.9033 8.46004 24.9374 8.48958 24.9716 8.51913C24.996 8.54375 25.0253 8.56345 25.0497 8.58807C25.0838 8.61761 25.118 8.64716 25.1521 8.67178C25.1814 8.69148 25.2058 8.7161 25.2351 8.7358C25.2693 8.76534 25.3083 8.78996 25.3425 8.81951C25.3717 8.83921 25.3961 8.8589 25.4254 8.8786C25.4352 8.88353 25.4449 8.89337 25.4547 8.8983L22.3852 2.39331C22.3852 2.39331 22.3852 2.40809 22.3852 2.41793C22.3803 2.54104 22.3755 2.66907 22.3755 2.7971C22.3755 2.88082 22.3755 2.95961 22.3755 3.03839C22.3755 3.06302 22.3755 3.09256 22.3755 3.11718L22.3852 3.13196Z" fill="#8B8B8B"/>
<path d="M17.2659 3.68342C17.2903 3.74251 17.3098 3.79175 17.3244 3.82622C17.4952 4.28911 17.7051 4.74706 17.9442 5.18533C18.2711 5.78117 18.6615 6.35731 19.1056 6.9039C19.3496 7.19936 19.6082 7.48497 19.8815 7.75581C20.677 8.54862 21.5993 9.21832 22.5411 9.8437L22.6045 9.8831C24.7517 11.1141 26.3474 12.2664 27.6553 13.5664L25.9131 9.87325C25.8838 9.85848 25.8594 9.83878 25.8302 9.82401C25.7911 9.80431 25.757 9.77969 25.7179 9.75999C25.6789 9.73537 25.635 9.71075 25.5959 9.68613C25.5569 9.66151 25.5227 9.64181 25.4837 9.61719C25.4446 9.59257 25.4056 9.56302 25.3666 9.5384C25.3324 9.51378 25.2934 9.48915 25.2592 9.46453C25.2202 9.43991 25.1811 9.41037 25.147 9.38082C25.1128 9.3562 25.0786 9.33158 25.0396 9.30203C25.0006 9.27249 24.9664 9.24786 24.9323 9.21832C24.8981 9.1937 24.8639 9.16415 24.8298 9.13953C24.7956 9.10998 24.7566 9.08044 24.7224 9.05089C24.6883 9.02135 24.6541 8.99673 24.6248 8.96718C24.5907 8.93763 24.5565 8.90809 24.5223 8.87362C24.4882 8.84407 24.4589 8.81453 24.4247 8.78498C24.3906 8.75544 24.3564 8.72097 24.3271 8.69142C24.2979 8.66187 24.2637 8.63233 24.2344 8.60278C24.2003 8.57324 24.171 8.53877 24.1368 8.5043C24.1075 8.47475 24.0734 8.44028 24.0441 8.41074C24.0148 8.37627 23.9807 8.34672 23.9514 8.31225C23.9221 8.27778 23.8928 8.24823 23.8635 8.21376C23.8343 8.17929 23.805 8.14482 23.7757 8.11035C23.7464 8.07588 23.7171 8.04634 23.6927 8.01187C23.6635 7.9774 23.6342 7.94293 23.6098 7.90846C23.5805 7.87399 23.5561 7.83952 23.5268 7.80505C23.4976 7.77058 23.4732 7.73118 23.4439 7.69671C23.4195 7.66224 23.3902 7.62777 23.3658 7.5933C23.3414 7.55883 23.3121 7.51944 23.2877 7.48497C23.2633 7.4505 23.2389 7.41111 23.2145 7.37664C23.1901 7.33724 23.1657 7.30277 23.1413 7.26338C23.1169 7.22891 23.0925 7.18951 23.0681 7.15504C23.0437 7.11565 23.0193 7.08118 22.9998 7.04178C22.9754 7.00239 22.9559 6.96792 22.9315 6.92852C22.9071 6.88913 22.8876 6.84974 22.8632 6.81034C22.8436 6.77095 22.8192 6.73155 22.7997 6.69708C22.7802 6.65769 22.7558 6.61829 22.7363 6.5789C22.7168 6.53951 22.6972 6.50011 22.6777 6.46072C22.6582 6.42132 22.6387 6.377 22.6192 6.33761C22.5996 6.29822 22.5801 6.25882 22.5606 6.21943C22.5411 6.18003 22.5216 6.13571 22.5069 6.09632C22.4874 6.05693 22.4728 6.01753 22.4532 5.97814C22.4337 5.93874 22.4191 5.89442 22.4044 5.85011C22.3898 5.81071 22.3703 5.77132 22.3556 5.727C22.341 5.68268 22.3264 5.64329 22.3068 5.59897C22.2922 5.55957 22.2776 5.51525 22.2629 5.47586C22.2483 5.43154 22.2337 5.38722 22.219 5.3429C22.2044 5.30351 22.1897 5.25919 22.18 5.2198C22.1653 5.17548 22.1556 5.13116 22.1409 5.08684C22.1312 5.04745 22.1165 5.00313 22.1068 4.96373C22.0921 4.91942 22.0824 4.87017 22.0726 4.82585C22.0629 4.78646 22.0531 4.74214 22.0433 4.70275C22.0336 4.65843 22.0238 4.60919 22.0141 4.56487C22.0043 4.52547 21.9945 4.48115 21.9848 4.44176C21.975 4.39252 21.9653 4.3482 21.9604 4.29895C21.9506 4.25956 21.9457 4.21524 21.936 4.17585C21.9262 4.1266 21.9213 4.07736 21.9116 4.02812C21.9067 3.98872 21.8969 3.94933 21.8921 3.90501C21.8872 3.85577 21.8774 3.8016 21.8725 3.75236C21.8725 3.71296 21.8628 3.67357 21.8579 3.63418C21.853 3.58001 21.8481 3.52584 21.8433 3.47167C21.8433 3.4372 21.8384 3.39781 21.8335 3.36334C21.8335 3.30425 21.8286 3.24023 21.8237 3.18114C21.8237 3.1516 21.8237 3.12205 21.8237 3.0925C21.8237 2.99894 21.8237 2.91031 21.8237 2.81674C21.8237 2.69856 21.8237 2.58038 21.8335 2.4622C21.8335 2.4228 21.8384 2.38341 21.8433 2.34401C21.8433 2.26522 21.853 2.18644 21.8579 2.10765C21.8579 2.06333 21.8677 2.01408 21.8725 1.96977C21.8823 1.8959 21.8872 1.82696 21.8969 1.75802C21.9018 1.70878 21.9116 1.65954 21.9165 1.61029C21.9262 1.55613 21.9311 1.50688 21.9409 1.45272C21.0332 -0.472683 18.3151 -0.472683 17.4025 1.45272L17.0756 2.15196H17.0853L16.9243 2.47204C17.0121 2.88568 17.1292 3.28948 17.2708 3.69327L17.2659 3.68342Z" fill="#8B8B8B"/>
<path d="M31.057 19.5691C30.7495 18.865 30.3933 18.1657 29.998 17.496C28.6658 15.2505 26.787 13.2857 24.5667 11.8183C24.186 11.5672 23.7956 11.316 23.415 11.0747C23.0197 10.8236 22.6244 10.5724 22.2292 10.3115C21.2678 9.6713 20.3211 8.9819 19.4866 8.15462C19.2915 7.95765 19.1011 7.76068 18.9206 7.55386C18.9108 7.54401 18.9059 7.53416 18.8962 7.52431C18.8474 7.47015 18.8035 7.41105 18.7547 7.35689C18.2715 6.78074 17.847 6.17013 17.4956 5.5349C17.4712 5.48566 17.4468 5.43641 17.4176 5.3921C17.3932 5.3527 17.3736 5.30838 17.3492 5.26899C17.3248 5.22467 17.3004 5.18035 17.2809 5.13603C17.1004 4.77656 16.9393 4.40231 16.7978 4.02807C16.7832 3.9936 16.7636 3.94435 16.7392 3.89019C16.7295 3.87049 16.7246 3.85079 16.7148 3.8311C16.6368 3.63905 16.5685 3.47162 16.5099 3.31897L16.2854 3.79663C14.7092 7.13037 17.847 10.5429 19.8575 12.2812C20.4334 12.7785 21.0433 13.2562 21.6338 13.7191C22.4878 14.3838 23.3662 15.0732 24.1714 15.8414C26.2649 17.8505 27.3726 20.3127 27.3726 22.962C27.3726 24.6313 26.9627 26.2021 26.2405 27.5809C25.162 29.6491 23.4247 31.2249 21.3654 32.1064C21.3557 32.1064 21.3459 32.1113 21.341 32.1162C21.2727 32.1458 21.2044 32.1753 21.1361 32.1999C21.1165 32.2098 21.097 32.2147 21.0775 32.2245C20.9848 32.259 20.8969 32.2935 20.8042 32.328C20.7457 32.3477 20.692 32.3674 20.6334 32.387C20.5993 32.3969 20.5651 32.4117 20.531 32.4215C20.4578 32.4461 20.3846 32.4658 20.3114 32.4905C20.2918 32.4954 20.2723 32.5003 20.2528 32.5052C20.0527 32.5643 19.8478 32.6136 19.6428 32.6628C19.633 32.6628 19.6233 32.6628 19.6135 32.6677C19.3012 32.7367 18.9791 32.7908 18.6571 32.8253C18.6473 32.8253 18.6424 32.8253 18.6327 32.8253C18.5253 32.8352 18.4131 32.8499 18.3057 32.8549C18.1983 32.8647 18.0861 32.8696 17.9787 32.8746C17.9787 32.8746 17.9739 32.8746 17.969 32.8746C17.8665 32.8746 17.764 32.8844 17.6567 32.8844C17.6518 32.8844 17.642 32.8844 17.6372 32.8844H17.5688C17.5688 32.8844 17.5396 32.8844 17.5298 32.8844C17.5298 32.8844 17.5249 32.8844 17.52 32.8844H17.5054C17.4566 32.8844 17.4127 32.8844 17.3639 32.8844C17.3639 32.8844 17.3541 32.8844 17.3444 32.8844C17.3297 32.8844 17.3151 32.8844 17.3004 32.8844C17.3004 32.8844 17.2712 32.8844 17.2565 32.8844C17.1882 32.8844 17.1199 32.8795 17.0516 32.8746H17.032C17.032 32.8746 17.0028 32.8746 16.9881 32.8746C16.871 32.8696 16.749 32.8598 16.6319 32.8499C16.588 32.8499 16.5489 32.845 16.505 32.8401C16.3879 32.8302 16.2708 32.8105 16.1488 32.7958C16.1049 32.7908 16.0658 32.7859 16.0219 32.7761C15.9097 32.7564 15.7925 32.7367 15.6803 32.717C15.6364 32.7071 15.5925 32.7022 15.5485 32.6924C15.4412 32.6727 15.3338 32.648 15.2265 32.6185C15.1777 32.6086 15.124 32.5939 15.0752 32.584C14.9776 32.5594 14.88 32.5299 14.7824 32.5052C14.7238 32.4905 14.6653 32.4708 14.6116 32.456C14.5238 32.4314 14.4408 32.4018 14.3578 32.3723C14.2895 32.3477 14.2212 32.328 14.1529 32.3033C14.0797 32.2787 14.0114 32.2492 13.9382 32.2196C13.8601 32.1901 13.7771 32.1556 13.6991 32.1261C13.6405 32.1014 13.5868 32.0768 13.5331 32.0522C13.4404 32.0128 13.3477 31.9685 13.255 31.9242C13.2159 31.9045 13.1769 31.8848 13.1379 31.8651C13.0305 31.8109 12.9231 31.7567 12.8158 31.6977C12.7963 31.6878 12.7719 31.673 12.7523 31.6632C12.6255 31.5942 12.5035 31.5204 12.3864 31.4465C12.3864 31.4465 12.3815 31.4465 12.3766 31.4416C12.2888 31.3874 12.2009 31.3283 12.1131 31.2742C12.0496 31.2298 11.9862 31.1904 11.9228 31.1461C11.9032 31.1314 11.8837 31.1166 11.8642 31.1067C11.7861 31.0526 11.7129 30.9984 11.6397 30.9442C11.5324 30.8654 11.4299 30.7817 11.3274 30.698C11.264 30.6438 11.2005 30.5897 11.1322 30.5355C11.0981 30.506 11.0639 30.4764 11.0297 30.4469C10.9565 30.3829 10.8833 30.3139 10.8101 30.2499C10.7906 30.2302 10.7662 30.2105 10.7467 30.1859C10.6686 30.112 10.5905 30.0382 10.5173 29.9594L10.5076 29.9495C10.5027 29.9446 10.4978 29.9397 10.4929 29.9348C10.3807 29.8215 10.2733 29.7033 10.1709 29.5851C10.1562 29.5704 10.1465 29.5556 10.1318 29.5408C10.0342 29.4276 9.93657 29.3143 9.84387 29.1961C9.82927 29.1764 9.81457 29.1567 9.79997 29.137C9.70724 29.0188 9.6194 28.9007 9.53644 28.7825C9.5218 28.7628 9.50716 28.748 9.4974 28.7283C9.39981 28.5904 9.30709 28.4525 9.21437 28.3097C9.21437 28.3097 9.21437 28.3048 9.20949 28.2999C9.14117 28.1916 9.07773 28.0832 9.00941 27.97C9.00453 27.9601 8.99477 27.9453 8.98989 27.9355C8.93133 27.8321 8.87277 27.7237 8.81421 27.6154C8.80445 27.6006 8.79957 27.5859 8.78981 27.5711C8.72638 27.4529 8.66782 27.3298 8.60926 27.2067C8.60926 27.1968 8.5995 27.187 8.59462 27.1771C8.54094 27.0639 8.49702 26.9506 8.44822 26.8374C8.43358 26.8029 8.41894 26.7684 8.4043 26.734C8.37014 26.6552 8.34086 26.5715 8.31158 26.4878C8.28718 26.4188 8.2579 26.3499 8.2335 26.2859C8.22862 26.2662 8.21886 26.2465 8.21398 26.2268C7.85775 25.1927 7.67231 24.0945 7.67231 22.9718C7.67231 22.8241 7.67231 22.6714 7.68207 22.5237C7.68207 22.4843 7.68207 22.4449 7.68695 22.4055C7.69183 22.2972 7.70159 22.1888 7.71135 22.0805C7.71135 22.0608 7.71135 22.0362 7.71135 22.0165C7.0672 23.5873 6.74512 25.2518 6.74512 26.9753C6.74512 34.1647 12.5425 40.0098 19.6623 40.0098C23.2588 40.0098 26.7187 38.4784 29.1587 35.8094C31.2961 33.4704 32.4673 30.4124 32.5453 26.9654C32.599 24.5082 32.0817 21.9525 31.057 19.579V19.5691Z" fill="#8B8B8B"/>
<path d="M8.24315 23.5283C8.24803 23.617 8.25291 23.7007 8.26267 23.7844C8.26755 23.8533 8.27731 23.9272 8.28219 23.9962C8.28707 24.0503 8.29683 24.0996 8.30171 24.1537C8.75066 27.6401 11.1224 30.5504 14.3041 31.7421C13.8454 31.3629 13.455 30.9099 13.1524 30.3928C13.1524 30.3879 13.1475 30.383 13.1426 30.378C13.1036 30.314 13.0694 30.2451 13.0353 30.1811C13.0353 30.1761 13.0304 30.1712 13.0255 30.1663C12.9523 30.0235 12.884 29.8807 12.8255 29.728C12.7718 29.5901 12.7181 29.4523 12.6791 29.3095C12.6791 29.2947 12.6693 29.2799 12.6644 29.2701C12.6498 29.2159 12.6351 29.1568 12.6205 29.1026C12.6107 29.0731 12.6059 29.0435 12.5961 29.014C12.5815 28.9648 12.5717 28.9106 12.5619 28.8564C12.5522 28.817 12.5473 28.7826 12.5375 28.7432C12.5278 28.6939 12.518 28.6447 12.5131 28.5954C12.5083 28.5511 12.4985 28.5117 12.4936 28.4674C12.4887 28.4231 12.479 28.3738 12.479 28.3295C12.4741 28.2803 12.4692 28.231 12.4643 28.1818C12.4643 28.1375 12.4595 28.0981 12.4546 28.0538C12.4546 27.9848 12.4497 27.9159 12.4497 27.8469C12.4497 27.8272 12.4497 27.8026 12.4497 27.7829C12.4497 27.6451 12.4546 27.5121 12.4643 27.3791C12.4936 26.9753 12.5717 26.5765 12.6986 26.1924C12.7376 26.0644 12.7864 25.9412 12.8352 25.8181C12.8352 25.8132 12.8352 25.8083 12.8401 25.8034C12.8645 25.7492 12.884 25.695 12.9084 25.6409C12.9133 25.6261 12.923 25.6162 12.9279 25.6015C12.9523 25.5522 12.9767 25.503 13.0011 25.4537C13.0109 25.439 13.0158 25.4193 13.0255 25.4045C13.0499 25.3602 13.0743 25.3109 13.0987 25.2666C13.1085 25.2518 13.1182 25.2321 13.128 25.2174C13.1719 25.1435 13.2158 25.0696 13.2598 25.0007C13.2793 24.9712 13.2939 24.9465 13.3134 24.917C13.3281 24.8924 13.3476 24.8678 13.3671 24.8431C13.3915 24.8037 13.4208 24.7693 13.4452 24.7348C13.4598 24.7151 13.4745 24.6954 13.494 24.6708C13.5233 24.6314 13.5574 24.5871 13.5916 24.5477C13.6062 24.5329 13.616 24.5181 13.6306 24.5034C13.6746 24.4541 13.7136 24.4049 13.7575 24.3556C13.7575 24.3556 13.7673 24.3458 13.7673 24.3409C13.8161 24.2867 13.8649 24.2374 13.9137 24.1882C13.9576 24.1439 14.0015 24.0996 14.0454 24.0602C14.0503 24.0552 14.0552 24.0503 14.0601 24.0454C14.1382 23.9715 14.2211 23.9026 14.2992 23.8337C14.3577 23.7844 14.4163 23.7401 14.4797 23.6958C14.5041 23.6761 14.5237 23.6613 14.5481 23.6416C14.6213 23.5874 14.6945 23.5431 14.7677 23.4939C14.7823 23.484 14.7969 23.4742 14.8067 23.4643C14.8848 23.4151 14.9677 23.3658 15.0458 23.3215C15.0507 23.3215 15.0556 23.3166 15.0653 23.3117L15.2069 23.2329L15.5777 23.0261V23.0605C16.1682 22.8094 16.8221 22.6764 17.5053 22.6764C19.9892 22.6764 22.0095 20.6378 22.0095 18.1313C22.0095 16.7968 21.4288 15.5313 20.4186 14.6696C20.3845 14.64 20.3503 14.6105 20.321 14.5858C19.8428 14.1968 19.3011 13.9161 18.7106 13.7536C18.3202 13.6453 17.9152 13.5862 17.5053 13.5862C14.0015 13.5862 10.8344 15.5412 9.23865 18.6878V18.6976C9.20937 18.7518 9.18497 18.806 9.16057 18.8601C9.12154 18.9537 9.07762 19.0522 9.0337 19.1457C8.90682 19.4363 8.77506 19.7366 8.68234 20.0272C8.68234 20.0272 8.68234 20.037 8.68234 20.042C8.68234 20.0567 8.67258 20.0666 8.67258 20.0813C8.66282 20.1158 8.64818 20.1552 8.63842 20.1897C8.61402 20.2734 8.58474 20.362 8.56034 20.4507C8.55058 20.4851 8.54082 20.5245 8.53106 20.559C8.51154 20.6378 8.49202 20.7166 8.4725 20.7954C8.46275 20.8397 8.45299 20.8791 8.44323 20.9234C8.42859 20.9973 8.40907 21.0711 8.39443 21.1499C8.38467 21.1942 8.37979 21.2435 8.37003 21.2878C8.35539 21.3617 8.34563 21.4355 8.33099 21.5045C8.32611 21.5537 8.31635 21.598 8.31147 21.6473C8.30171 21.7211 8.29195 21.795 8.28219 21.8639C8.27731 21.9083 8.27243 21.9526 8.26755 22.0018C8.25779 22.0757 8.25291 22.1545 8.24803 22.2283C8.24803 22.2677 8.24803 22.3022 8.24315 22.3416C8.22851 22.5484 8.22363 22.7503 8.22363 22.9571C8.22363 23.0999 8.22363 23.2427 8.23339 23.3855C8.23339 23.4348 8.23827 23.484 8.24315 23.5333V23.5283Z" fill="#8B8B8B"/>
<path d="M14.7333 24.2029C14.6991 24.2275 14.665 24.2521 14.6357 24.2817C14.5967 24.3161 14.5576 24.3506 14.5186 24.3851C14.4747 24.4245 14.4307 24.4639 14.3917 24.5033C14.3624 24.5328 14.3283 24.5624 14.299 24.5919C14.2258 24.6658 14.1575 24.7396 14.0892 24.8184C14.0892 24.8184 14.0794 24.8283 14.0794 24.8332C14.0452 24.8726 14.016 24.912 13.9867 24.9514C13.9623 24.9809 13.9379 25.0154 13.9135 25.0449C13.9037 25.0597 13.894 25.0696 13.8842 25.0843C13.606 25.4684 13.3864 25.8968 13.2352 26.3597C13.1229 26.6995 13.0546 27.054 13.0253 27.4135C13.0156 27.5317 13.0107 27.6548 13.0107 27.773C13.0107 29.851 14.3673 31.5942 16.2607 32.1408C16.2607 32.1408 16.2656 32.1408 16.2705 32.1408C16.3339 32.1605 16.4022 32.1753 16.4706 32.195C16.4803 32.195 16.495 32.195 16.5047 32.1999C16.5633 32.2147 16.6267 32.2246 16.6853 32.2393C16.7048 32.2393 16.7194 32.2442 16.739 32.2492C16.7926 32.259 16.8463 32.2689 16.9049 32.2738C16.9293 32.2738 16.9488 32.2787 16.9732 32.2836C17.022 32.2886 17.0757 32.2935 17.1245 32.2984C17.1537 32.2984 17.1781 32.2984 17.2074 32.3033C17.2611 32.3033 17.3148 32.3132 17.3636 32.3132C17.3636 32.3132 17.3733 32.3132 17.3782 32.3132C17.4221 32.3132 17.4709 32.3132 17.5197 32.3132H17.5344H17.5539H17.6515C17.7247 32.3132 17.8028 32.3083 17.876 32.3033C17.9345 32.3033 17.9882 32.3033 18.0468 32.2984C18.1883 32.2886 18.3298 32.2787 18.4713 32.2639C18.525 32.259 18.5738 32.2492 18.6275 32.2443C18.7202 32.2344 18.8129 32.2246 18.9056 32.2098C18.9642 32.1999 19.0276 32.1901 19.0862 32.1802C19.1692 32.1655 19.2521 32.1507 19.3351 32.1359C19.3936 32.1261 19.4522 32.1113 19.5108 32.0965C19.5986 32.0768 19.6815 32.0571 19.7645 32.0374C19.8182 32.0227 19.8719 32.0128 19.9255 31.998C20.0231 31.9734 20.1207 31.9439 20.2135 31.9143C20.2525 31.9045 20.2915 31.8897 20.3306 31.8799C21.4822 31.5155 22.5461 30.9295 23.4684 30.1564C23.4635 30.1564 23.4586 30.1613 23.4489 30.1662C22.8535 30.437 22.2142 30.6143 21.5506 30.6833C21.3456 30.7029 21.1406 30.7128 20.9357 30.7128C17.5783 30.7128 14.8455 27.9552 14.8455 24.5673C14.8455 24.4097 14.8504 24.2571 14.8651 24.0995C14.8211 24.129 14.7821 24.1635 14.7382 24.193L14.7333 24.2029Z" fill="#8B8B8B"/>
<path d="M4.90037 27.9257L0.913455 36.3758C0.118032 38.0599 1.33314 40.0001 3.18263 40.0001H8.74087L9.69246 37.991C6.8621 35.3811 5.14924 31.7667 4.90525 27.9257H4.90037Z" fill="#8B8B8B"/>
<path d="M34.4286 27.9257C34.1748 31.9735 32.3107 35.7258 29.2168 38.3652L29.9879 40.0001H36.1463C37.9909 40.0001 39.2109 38.055 38.4155 36.3758L34.4286 27.9257Z" fill="#8B8B8B"/>
<path d="M15.9486 11.2472C16.0218 10.7301 15.6851 10.1688 15.1581 9.94717C14.9287 9.84868 14.7091 9.81914 14.5041 9.83391C13.6306 9.89793 12.9572 10.8089 12.6839 11.3851L11.7275 13.4139C12.4936 12.8082 13.5477 12.2271 14.8653 12.0843C15.4948 12.0154 15.8803 11.715 15.9486 11.2423V11.2472Z" fill="#8B8B8B"/>
</g>
</svg>
