<svg width="171" height="40" viewBox="0 0 171 40" fill="none" xmlns="http://www.w3.org/2000/svg">
<path d="M131.006 13.3805H127.48C127.07 13.3805 126.679 13.2038 126.406 12.8967L124.977 11.2824C124.765 11.0423 124.458 10.9033 124.137 10.9033C123.816 10.9033 123.509 11.0406 123.296 11.2824L122.07 12.6686C121.668 13.1214 121.092 13.3822 120.486 13.3822H101.194C100.645 14.9484 100.286 16.6022 100.144 18.3194H118.357C118.678 18.3194 118.983 18.189 119.205 17.9574L120.901 16.1887C121.112 15.9674 121.406 15.8422 121.711 15.8422H121.781C122.102 15.8422 122.409 15.9794 122.622 16.2213L124.051 17.8356C124.324 18.1427 124.713 18.3194 125.125 18.3194H139.991C139.849 16.6022 139.49 14.9484 138.941 13.3822H131.006V13.3805Z" fill="#8B8B8B"/>
<path d="M111.168 28.6967C111.488 28.6967 111.794 28.5664 112.015 28.3348L113.712 26.5661C113.923 26.3448 114.216 26.2196 114.521 26.2196H114.592C114.913 26.2196 115.22 26.3568 115.432 26.5987L116.861 28.213C117.134 28.52 117.524 28.6967 117.935 28.6967H138.082C138.837 27.1374 139.389 25.463 139.718 23.7115H120.382C119.972 23.7115 119.58 23.5348 119.308 23.2278L117.879 21.6135C117.666 21.3733 117.359 21.2344 117.038 21.2344C116.717 21.2344 116.41 21.3716 116.197 21.6135L114.971 22.9996C114.569 23.4525 113.993 23.7133 113.387 23.7133H100.42C100.749 25.4665 101.302 27.1391 102.057 28.6985H111.168V28.6967Z" fill="#8B8B8B"/>
<path d="M125.459 7.98731C125.78 7.98731 126.086 7.85693 126.307 7.62534L128.004 5.85667C128.215 5.63537 128.508 5.51014 128.813 5.51014H128.884C129.204 5.51014 129.511 5.64738 129.724 5.88927L131.153 7.50354C131.426 7.81061 131.815 7.98731 132.227 7.98731H136.058C132.409 3.13762 126.605 0 120.069 0C113.533 0 107.73 3.13762 104.081 7.98731H125.461H125.459Z" fill="#8B8B8B"/>
<path d="M117.764 33.6393H112.525C112.115 33.6393 111.723 33.4626 111.451 33.1555L110.022 31.5412C109.809 31.3011 109.502 31.1621 109.181 31.1621C108.86 31.1621 108.553 31.2993 108.341 31.5412L107.114 32.9273C106.713 33.3802 106.136 33.641 105.531 33.641H105.448C109.099 37.5523 114.295 40.0003 120.068 40.0003C125.84 40.0003 131.036 37.5523 134.687 33.641H117.764V33.6393Z" fill="#8B8B8B"/>
<path d="M31.6601 38.7068L27.5909 28.8238H9.41191L5.34278 38.7068H0.638916L18.4748 1.29199L36.3639 38.7068H31.6601ZM10.9438 25.0721H26.0058L18.4508 9.13177L10.9456 25.0721H10.9438Z" fill="#8B8B8B"/>
<path d="M42.8604 38.7068V1.29199H53.2717C61.41 1.29199 65.6901 5.04376 65.6901 12.0721C65.6901 19.1005 61.1458 22.7476 53.2185 22.7476H47.2469V38.7068H42.8604ZM47.2469 18.8363H52.215C58.5039 18.8363 61.2521 16.776 61.2521 12.0721C61.2521 7.36825 58.4508 5.20159 52.215 5.20159H47.2469V18.8363Z" fill="#8B8B8B"/>
<path d="M81.6219 5.30795H68.7283V1.29199H98.9037V5.30795H86.0084V38.7068H81.6219V5.30795Z" fill="#8B8B8B"/>
<path d="M146.167 31.8888L149.945 29.3259L150.236 29.9332C152.561 34.1601 155.098 35.8516 158.956 35.8516C163.236 35.8516 166.249 32.8924 166.249 29.2984C166.249 25.9155 164.557 23.6442 157.793 20.8428C150.025 17.6194 147.382 14.2897 147.382 9.53432C147.382 4.35527 151.451 0.286133 158.479 0.286133C163.658 0.286133 167.199 2.50597 169.208 6.09992L166.142 8.2134L165.243 8.00239C163.658 5.51837 161.703 4.09108 158.373 4.09108C154.304 4.09108 151.926 6.3641 151.926 9.42796C151.926 12.2808 153.458 13.9191 160.064 16.9315C168.678 20.8428 170.793 24.0662 170.793 29.2453C170.793 34.8995 165.931 39.708 159.007 39.708C153.194 39.708 149.178 37.4882 146.165 31.8871L146.167 31.8888Z" fill="#8B8B8B"/>
</svg>
