<svg width="102" height="40" viewBox="0 0 102 40" fill="none" xmlns="http://www.w3.org/2000/svg">
<circle cx="20.136" cy="20" r="19.0253" fill="#8B8B8B" stroke="#8B8B8B" stroke-width="1.94932"/>
<path fill-rule="evenodd" clip-rule="evenodd" d="M20.7062 11.0345C20.5966 10.8633 20.4074 10.7598 20.2041 10.7598C20.0008 10.7598 19.8116 10.8633 19.702 11.0345L9.9767 26.2214C9.85918 26.4049 9.85114 26.6379 9.95573 26.8291C10.0603 27.0203 10.2609 27.1392 10.4788 27.1392H29.9274C30.1453 27.1392 30.3458 27.0203 30.4504 26.8291C30.555 26.6379 30.547 26.4049 30.4295 26.2214L20.7062 11.0345ZM12.2786 25.9467H28.128C25.9143 24.2724 23.1132 23.3424 20.2031 23.3424C17.2931 23.3424 14.4935 24.2723 12.2786 25.9467ZM27.7496 24.2473L26.0683 21.6212C26.0305 21.6121 25.9929 21.599 25.9563 21.5819C22.3471 19.9 18.0572 19.9001 14.45 21.5819C14.4136 21.5989 14.3763 21.6119 14.3387 21.621L12.6566 24.2477C14.879 22.8868 17.5029 22.1499 20.2031 22.1499C22.9029 22.1499 25.5276 22.8866 27.7496 24.2473ZM16.8352 17.7225L15.4379 19.9045C18.511 18.869 21.8956 18.8692 24.9696 19.9051L23.5576 17.6998C21.3566 17.1574 19.0328 17.165 16.8352 17.7225ZM22.6621 16.3011C21.033 16.0366 19.3642 16.0412 17.7364 16.3151L20.204 12.4617L22.6621 16.3011Z" fill="white"/>
<path d="M60.1718 27.7616L56.3948 12.2169H54.0151L50.1945 27.7616H52.7707L53.382 24.6832H56.9843L57.6175 27.7616H60.1718ZM56.5258 22.4781H53.8623L55.1941 15.9721L56.5258 22.4781Z" fill="#8B8B8B"/>
<path d="M72.1965 27.7616L69.8823 20.8625C71.3014 20.0984 71.6944 18.723 71.6944 16.8017C71.6944 13.5924 70.5591 12.2169 67.7209 12.2169H63.7911V27.7616H66.2363V21.3865H67.6117L69.6421 27.7616H72.1965ZM69.2492 16.8017C69.2492 18.0898 69.0527 19.1815 67.7427 19.1815H66.2363V14.422H67.7427C69.0527 14.422 69.2492 15.5136 69.2492 16.8017Z" fill="#8B8B8B"/>
<path d="M78.8453 27.7616V12.2169H76.4001V27.7616H78.8453Z" fill="#8B8B8B"/>
<path d="M90.1855 27.7616V25.5565H86.1029V21.0372H89.6179V18.8321H86.1029V14.422H90.1855V12.2169H83.6577V27.7616H90.1855Z" fill="#8B8B8B"/>
<path d="M102.007 23.4606C102.007 20.8407 101.505 19.8583 99.6495 19.0941L97.8156 18.3518C96.724 17.9152 96.5275 17.5222 96.5275 16.2559C96.5275 15.5791 96.6585 15.0551 96.9423 14.7277C97.1825 14.4657 97.4881 14.291 97.9903 14.291C98.5142 14.291 98.8636 14.4657 99.0819 14.7495C99.4094 15.1643 99.453 15.7101 99.453 16.4087H101.898C101.898 14.9241 101.614 13.8107 100.807 13.0247C100.174 12.4134 99.2565 12.0859 98.0121 12.0859C96.8986 12.0859 96.0254 12.4353 95.3486 13.0247C94.4971 13.7889 94.0823 14.9241 94.0823 16.3214C94.0823 18.723 94.6717 19.5744 96.2437 20.2294L98.0994 20.9935C99.3002 21.4739 99.5622 21.8887 99.5622 23.5479C99.5622 24.3776 99.4749 24.9015 99.1474 25.2727C98.9072 25.5565 98.5361 25.7093 97.9684 25.7093C97.4226 25.7093 97.0515 25.5347 96.8332 25.2945C96.4838 24.9015 96.3965 24.3776 96.3965 23.5479H93.9513C93.9513 25.1854 94.2133 26.146 94.9556 26.8883C95.6105 27.5432 96.6148 27.9144 97.9684 27.9144C99.3439 27.9144 100.37 27.4996 101.003 26.8883C101.789 26.1241 102.007 25.0544 102.007 23.4606Z" fill="#8B8B8B"/>
</svg>
