<svg width="24" height="24" viewBox="0 0 24 24" fill="none" xmlns="http://www.w3.org/2000/svg">
<rect width="24" height="24" fill="#F5F5F5"/>
<g clip-path="url(#clip0_0_1)">
<rect width="1440" height="1024" transform="translate(-1102 -44)" fill="white"/>
<g opacity="0.6">
<g filter="url(#filter0_f_0_1)">
<path fill-rule="evenodd" clip-rule="evenodd" d="M-8.50272 40.743C115.495 14.5274 252.196 56.1977 341.83 145.792C431.475 235.397 459.97 370.009 447.047 496.091C435.31 610.595 362.036 704.013 276.695 781.261C196.473 853.877 99.0883 896.882 -8.50272 908.445C-132.085 921.727 -267.383 930.078 -362.39 849.944C-462.714 765.326 -525.136 624.363 -497.394 496.091C-472.016 378.753 -324.397 349.897 -236.544 268.072C-154.894 192.024 -117.673 63.8238 -8.50272 40.743Z" fill="#C2E7FC"/>
</g>
<path fill-rule="evenodd" clip-rule="evenodd" d="M421.875 478.372C517.11 474.1 609.603 403.818 691.555 438.661C776.072 474.596 783.16 560.763 780.585 630.885C778.084 698.98 752.954 771.225 677.795 813.3C607.698 852.542 508.583 846.41 421.875 831.696C354.254 820.221 320.107 772.759 264.377 743.146C189.113 703.154 62.6317 696.46 43.9532 630.885C24.9243 564.079 100.907 495.011 184.132 461.425C256.18 432.35 339.244 482.079 421.875 478.372Z" fill="#6A4DEE"/>
</g>
<path d="M-330.747 37L-339.994 4.27273H-332.132L-326.379 27.2841H-326.081L-320.2 4.27273H-312.423L-306.542 27.1562H-306.223L-300.555 4.27273H-292.671L-301.94 37H-309.973L-316.109 14.8835H-316.556L-322.693 37H-330.747ZM-288.486 37V4.27273H-280.773V37H-288.486ZM-284.608 -0.372159C-285.83 -0.372159 -286.881 -0.776989 -287.762 -1.58665C-288.642 -2.41051 -289.083 -3.39773 -289.083 -4.5483C-289.083 -5.71307 -288.642 -6.70029 -287.762 -7.50995C-286.881 -8.33381 -285.83 -8.74574 -284.608 -8.74574C-283.373 -8.74574 -282.321 -8.33381 -281.455 -7.50995C-280.574 -6.70029 -280.134 -5.71307 -280.134 -4.5483C-280.134 -3.39773 -280.574 -2.41051 -281.455 -1.58665C-282.321 -0.776989 -283.373 -0.372159 -284.608 -0.372159ZM-257.699 4.27273V10.2386H-276.513V4.27273H-257.699ZM-271.868 -3.56818H-264.155V27.1562C-264.155 28.1932 -263.999 28.9886 -263.687 29.5426C-263.36 30.0824 -262.934 30.4517 -262.408 30.6506C-261.883 30.8494 -261.3 30.9489 -260.661 30.9489C-260.178 30.9489 -259.738 30.9134 -259.34 30.8423C-258.928 30.7713 -258.615 30.7074 -258.402 30.6506L-257.103 36.6804C-257.515 36.8224 -258.104 36.9787 -258.871 37.1491C-259.624 37.3196 -260.547 37.419 -261.641 37.4474C-263.573 37.5043 -265.313 37.2131 -266.861 36.5739C-268.41 35.9205 -269.638 34.9119 -270.547 33.5483C-271.442 32.1847 -271.883 30.4801 -271.868 28.4347V-3.56818ZM-244.032 17.8239V37H-251.746V-6.63636H-244.203V9.83381H-243.819C-243.052 7.98721 -241.866 6.53125 -240.261 5.46591C-238.642 4.38636 -236.582 3.84659 -234.082 3.84659C-231.809 3.84659 -229.828 4.32244 -228.138 5.27415C-226.447 6.22585 -225.14 7.6179 -224.217 9.45028C-223.28 11.2827 -222.811 13.5199 -222.811 16.1619V37H-230.524V17.3551C-230.524 15.1534 -231.092 13.4418 -232.228 12.2202C-233.351 10.9844 -234.927 10.3665 -236.959 10.3665C-238.322 10.3665 -239.544 10.6648 -240.623 11.2614C-241.689 11.8437 -242.527 12.6889 -243.138 13.7969C-243.734 14.9048 -244.032 16.2472 -244.032 17.8239ZM-196.287 -6.63636L-184.93 27.7102H-184.483L-173.148 -6.63636H-164.454L-179.838 37H-189.597L-204.959 -6.63636H-196.287ZM-160.248 37V4.27273H-152.535V37H-160.248ZM-156.37 -0.372159C-157.592 -0.372159 -158.643 -0.776989 -159.523 -1.58665C-160.404 -2.41051 -160.844 -3.39773 -160.844 -4.5483C-160.844 -5.71307 -160.404 -6.70029 -159.523 -7.50995C-158.643 -8.33381 -157.592 -8.74574 -156.37 -8.74574C-155.134 -8.74574 -154.083 -8.33381 -153.217 -7.50995C-152.336 -6.70029 -151.896 -5.71307 -151.896 -4.5483C-151.896 -3.39773 -152.336 -2.41051 -153.217 -1.58665C-154.083 -0.776989 -155.134 -0.372159 -156.37 -0.372159ZM-145.462 37V-6.63636H-137.749V9.68466H-137.43C-137.032 8.8892 -136.471 8.04403 -135.747 7.14915C-135.022 6.24006 -134.042 5.46591 -132.806 4.8267C-131.57 4.1733 -129.994 3.84659 -128.076 3.84659C-125.548 3.84659 -123.268 4.4929 -121.237 5.78551C-119.191 7.06392 -117.572 8.96023 -116.379 11.4744C-115.171 13.9744 -114.568 17.0426 -114.568 20.679C-114.568 24.2727 -115.157 27.3267 -116.336 29.8409C-117.515 32.3551 -119.12 34.2727 -121.151 35.5938C-123.183 36.9148 -125.484 37.5753 -128.055 37.5753C-129.93 37.5753 -131.485 37.2628 -132.721 36.6378C-133.957 36.0128 -134.951 35.2599 -135.704 34.3793C-136.443 33.4844 -137.018 32.6392 -137.43 31.8438H-137.877V37H-145.462ZM-137.899 20.6364C-137.899 22.7528 -137.6 24.6065 -137.004 26.1974C-136.393 27.7884 -135.519 29.0312 -134.383 29.9261C-133.232 30.8068 -131.84 31.2472 -130.207 31.2472C-128.502 31.2472 -127.075 30.7926 -125.924 29.8835C-124.774 28.9602 -123.907 27.7031 -123.325 26.1122C-122.728 24.5071 -122.43 22.6818 -122.43 20.6364C-122.43 18.6051 -122.721 16.8011 -123.303 15.2244C-123.886 13.6477 -124.752 12.4119 -125.903 11.517C-127.053 10.6222 -128.488 10.1747 -130.207 10.1747C-131.854 10.1747 -133.254 10.608 -134.404 11.4744C-135.555 12.3409 -136.428 13.5554 -137.025 15.1179C-137.607 16.6804 -137.899 18.5199 -137.899 20.6364ZM-109.21 37V4.27273H-101.732V9.72727H-101.391C-100.794 7.83807 -99.7715 6.3821 -98.3226 5.35938C-96.8595 4.32244 -95.1905 3.80398 -93.3155 3.80398C-92.8894 3.80398 -92.4135 3.82528 -91.8879 3.8679C-91.3482 3.89631 -90.9007 3.94602 -90.5456 4.01704V11.1122C-90.8723 10.9986 -91.3908 10.8991 -92.101 10.8139C-92.797 10.7145 -93.4717 10.6648 -94.1252 10.6648C-95.5314 10.6648 -96.7956 10.9702 -97.9178 11.581C-99.0257 12.1776 -99.8993 13.0085 -100.539 14.0739C-101.178 15.1392 -101.497 16.3679 -101.497 17.7599V37H-109.21ZM-77.7896 37.6605C-79.8635 37.6605 -81.7314 37.2912 -83.3933 36.5526C-85.0411 35.7997 -86.3479 34.6918 -87.3138 33.2287C-88.2655 31.7656 -88.7413 29.9616 -88.7413 27.8168C-88.7413 25.9702 -88.4004 24.4432 -87.7186 23.2358C-87.0368 22.0284 -86.1064 21.0625 -84.9274 20.3381C-83.7484 19.6136 -82.4203 19.0668 -80.943 18.6974C-79.4516 18.3139 -77.9104 18.0369 -76.3195 17.8665C-74.4019 17.6676 -72.8465 17.4901 -71.6533 17.3338C-70.4601 17.1634 -69.5936 16.9077 -69.0538 16.5668C-68.4999 16.2116 -68.2229 15.6648 -68.2229 14.9261V14.7983C-68.2229 13.1932 -68.6987 11.9503 -69.6504 11.0696C-70.6021 10.1889 -71.9729 9.74858 -73.7626 9.74858C-75.6519 9.74858 -77.1504 10.1605 -78.2584 10.9844C-79.3521 11.8082 -80.0908 12.7812 -80.4743 13.9034L-87.676 12.8807C-87.1078 10.892 -86.1703 9.23011 -84.8635 7.89489C-83.5567 6.54545 -81.9587 5.53693 -80.0695 4.86932C-78.1803 4.1875 -76.0922 3.84659 -73.8053 3.84659C-72.2286 3.84659 -70.659 4.03125 -69.0965 4.40057C-67.534 4.76989 -66.1064 5.38068 -64.8138 6.23295C-63.5212 7.07102 -62.4842 8.21449 -61.703 9.66335C-60.9075 11.1122 -60.5098 12.9233 -60.5098 15.0966V37H-67.9246V32.5043H-68.1803C-68.649 33.4134 -69.3095 34.2656 -70.1618 35.0611C-70.9999 35.8423 -72.0581 36.4744 -73.3365 36.9574C-74.6007 37.4261 -76.0851 37.6605 -77.7896 37.6605ZM-75.7868 31.9929C-74.2385 31.9929 -72.8962 31.6875 -71.7598 31.0767C-70.6234 30.4517 -69.7499 29.6278 -69.1391 28.6051C-68.5141 27.5824 -68.2016 26.4673 -68.2016 25.2599V21.4034C-68.443 21.6023 -68.855 21.7869 -69.4374 21.9574C-70.0055 22.1278 -70.6447 22.277 -71.355 22.4048C-72.0652 22.5327 -72.7683 22.6463 -73.4644 22.7457C-74.1604 22.8452 -74.7641 22.9304 -75.2754 23.0014C-76.426 23.1577 -77.4558 23.4134 -78.3649 23.7685C-79.274 24.1236 -79.9913 24.6207 -80.5169 25.2599C-81.0425 25.8849 -81.3053 26.6946 -81.3053 27.6889C-81.3053 29.1094 -80.7868 30.1818 -79.7499 30.9062C-78.7129 31.6307 -77.3919 31.9929 -75.7868 31.9929ZM-46.241 17.8239V37H-53.9541V4.27273H-46.5819V9.83381H-46.1984C-45.4456 8.00142 -44.2453 6.54545 -42.5976 5.46591C-40.9356 4.38636 -38.8831 3.84659 -36.4399 3.84659C-34.1814 3.84659 -32.214 4.32955 -30.5379 5.29545C-28.8476 6.26136 -27.5408 7.66051 -26.6175 9.4929C-25.68 11.3253 -25.2183 13.5483 -25.2325 16.1619V37H-32.9456V17.3551C-32.9456 15.1676 -33.5138 13.456 -34.6501 12.2202C-35.7723 10.9844 -37.3277 10.3665 -39.3163 10.3665C-40.6658 10.3665 -41.866 10.6648 -42.9172 11.2614C-43.9541 11.8437 -44.7709 12.6889 -45.3675 13.7969C-45.9498 14.9048 -46.241 16.2472 -46.241 17.8239ZM-2.24929 4.27273V10.2386H-21.0632V4.27273H-2.24929ZM-16.4183 -3.56818H-8.70526V27.1562C-8.70526 28.1932 -8.54901 28.9886 -8.23651 29.5426C-7.9098 30.0824 -7.48366 30.4517 -6.9581 30.6506C-6.43253 30.8494 -5.85014 30.9489 -5.21094 30.9489C-4.72798 30.9489 -4.28764 30.9134 -3.88991 30.8423C-3.47798 30.7713 -3.16548 30.7074 -2.95241 30.6506L-1.6527 36.6804C-2.06463 36.8224 -2.65412 36.9787 -3.42116 37.1491C-4.17401 37.3196 -5.0973 37.419 -6.19105 37.4474C-8.12287 37.5043 -9.86293 37.2131 -11.4112 36.5739C-12.9595 35.9205 -14.1882 34.9119 -15.0973 33.5483C-15.9922 32.1847 -16.4325 30.4801 -16.4183 28.4347V-3.56818ZM9.94736 -6.63636L19.5567 9.34375H19.8976L29.5496 -6.63636H38.5624L25.1178 15.1818L38.7755 37H29.6136L19.8976 21.1264H19.5567L9.84083 37H0.721508L14.507 15.1818L0.891962 -6.63636H9.94736Z" fill="#3D3D3D"/>
<g filter="url(#filter2_ddd_0_1)">
<rect x="-24" y="-20" width="338" height="92" rx="8" fill="white"/>
<path d="M12 1.5C6.20156 1.5 1.5 6.20156 1.5 12C1.5 17.7984 6.20156 22.5 12 22.5C17.7984 22.5 22.5 17.7984 22.5 12C22.5 6.20156 17.7984 1.5 12 1.5ZM16.5352 8.57109L11.5992 15.4148C11.5302 15.5111 11.4393 15.5896 11.3339 15.6437C11.2286 15.6978 11.1118 15.7261 10.9934 15.7261C10.8749 15.7261 10.7582 15.6978 10.6528 15.6437C10.5474 15.5896 10.4565 15.5111 10.3875 15.4148L7.46484 11.3648C7.37578 11.2406 7.46484 11.0672 7.61719 11.0672H8.71641C8.95547 11.0672 9.18281 11.182 9.32344 11.3789L10.9922 13.6945L14.6766 8.58516C14.8172 8.39062 15.0422 8.27344 15.2836 8.27344H16.3828C16.5352 8.27344 16.6242 8.44688 16.5352 8.57109Z" fill="#52C41A"/>
</g>
</g>
<defs>
<filter id="filter0_f_0_1" x="-1004" y="-467" width="1954" height="1884" filterUnits="userSpaceOnUse" color-interpolation-filters="sRGB">
<feFlood flood-opacity="0" result="BackgroundImageFix"/>
<feBlend mode="normal" in="SourceGraphic" in2="BackgroundImageFix" result="shape"/>
<feGaussianBlur stdDeviation="250" result="effect1_foregroundBlur_0_1"/>
</filter>
<filter id="filter2_ddd_0_1" x="-60" y="-47" width="410" height="164" filterUnits="userSpaceOnUse" color-interpolation-filters="sRGB">
<feFlood flood-opacity="0" result="BackgroundImageFix"/>
<feColorMatrix in="SourceAlpha" type="matrix" values="0 0 0 0 0 0 0 0 0 0 0 0 0 0 0 0 0 0 127 0" result="hardAlpha"/>
<feMorphology radius="8" operator="dilate" in="SourceAlpha" result="effect1_dropShadow_0_1"/>
<feOffset dy="9"/>
<feGaussianBlur stdDeviation="14"/>
<feComposite in2="hardAlpha" operator="out"/>
<feColorMatrix type="matrix" values="0 0 0 0 0 0 0 0 0 0 0 0 0 0 0 0 0 0 0.05 0"/>
<feBlend mode="normal" in2="BackgroundImageFix" result="effect1_dropShadow_0_1"/>
<feColorMatrix in="SourceAlpha" type="matrix" values="0 0 0 0 0 0 0 0 0 0 0 0 0 0 0 0 0 0 127 0" result="hardAlpha"/>
<feMorphology radius="4" operator="erode" in="SourceAlpha" result="effect2_dropShadow_0_1"/>
<feOffset dy="3"/>
<feGaussianBlur stdDeviation="3"/>
<feComposite in2="hardAlpha" operator="out"/>
<feColorMatrix type="matrix" values="0 0 0 0 0 0 0 0 0 0 0 0 0 0 0 0 0 0 0.12 0"/>
<feBlend mode="normal" in2="effect1_dropShadow_0_1" result="effect2_dropShadow_0_1"/>
<feColorMatrix in="SourceAlpha" type="matrix" values="0 0 0 0 0 0 0 0 0 0 0 0 0 0 0 0 0 0 127 0" result="hardAlpha"/>
<feOffset dy="6"/>
<feGaussianBlur stdDeviation="8"/>
<feComposite in2="hardAlpha" operator="out"/>
<feColorMatrix type="matrix" values="0 0 0 0 0 0 0 0 0 0 0 0 0 0 0 0 0 0 0.08 0"/>
<feBlend mode="normal" in2="effect2_dropShadow_0_1" result="effect3_dropShadow_0_1"/>
<feBlend mode="normal" in="SourceGraphic" in2="effect3_dropShadow_0_1" result="shape"/>
</filter>
<clipPath id="clip0_0_1">
<rect width="1440" height="1024" fill="white" transform="translate(-1102 -44)"/>
</clipPath>
</defs>
</svg>
