<svg width="28" height="28" viewBox="0 0 28 28" fill="none" xmlns="http://www.w3.org/2000/svg">
<rect x="-0.00012207" width="28" height="28" rx="14" fill="#655CFF" fill-opacity="0.2"/>
<g clip-path="url(#clip0_1681_7842)">
<path d="M13.9998 10.8398C10.6626 10.8398 8.07483 14.5148 8.07483 17.6763C8.07483 21.3531 11.4566 21.7782 13.9998 21.7782C16.543 21.7782 19.9248 21.3532 19.9248 17.6763C19.9248 14.5148 17.3371 10.8398 13.9998 10.8398ZM14.468 18.5055C14.4639 18.5069 14.4597 18.5062 14.4556 18.5077V19.0435C14.4556 19.2955 14.2517 19.4993 13.9998 19.4993C13.7479 19.4993 13.5441 19.2954 13.5441 19.0435V18.5045C13.2436 18.4032 12.9558 18.2108 12.71 17.9179C12.548 17.7252 12.5729 17.4377 12.7661 17.2757C12.9584 17.1137 13.2459 17.1381 13.4079 17.3313C14.3065 18.4046 14.9131 16.7647 13.9999 16.7647C13.2459 16.7647 12.6325 16.1513 12.6325 15.3974C12.6325 14.852 12.9448 14.3319 13.5441 14.1186V13.5743C13.5441 13.3224 13.748 13.1185 13.9999 13.1185C14.2518 13.1185 14.4556 13.3224 14.4556 13.5743V14.1201C14.6916 14.1996 14.9217 14.3259 15.1268 14.5245C15.3075 14.6999 15.3129 14.9883 15.1375 15.169C14.9622 15.3502 14.6737 15.3551 14.493 15.1797C13.6546 14.3698 13.0883 15.8531 13.9999 15.8531C14.7538 15.8531 15.3672 16.4665 15.3672 17.2204C15.3671 17.7929 15.0057 18.3096 14.468 18.5055Z" fill="#655CFF"/>
<path d="M16.5991 6.58984C14.9167 6.10026 13.0829 6.10026 11.4005 6.58984C11.1182 6.67153 10.9834 6.99933 11.1352 7.25836L11.8246 8.49248C13.0233 8.01551 14.8012 7.94429 16.1749 8.49269L16.8644 7.25836C17.0162 6.99933 16.8814 6.67156 16.5991 6.58984Z" fill="#655CFF"/>
<path d="M16.116 9.48584C15.2632 8.88507 12.7617 8.86001 11.8784 9.48864C11.4997 9.75597 11.298 10.176 11.302 10.6147C12.1772 10.1511 13.2033 9.92824 13.9998 9.92824C14.97 9.92824 15.8787 10.1808 16.6977 10.6147C16.7015 10.192 16.5137 9.76627 16.116 9.48584Z" fill="#655CFF"/>
</g>
<defs>
<clipPath id="clip0_1681_7842">
<rect width="15.5556" height="15.5556" fill="white" transform="translate(6.22205 6.22266)"/>
</clipPath>
</defs>
</svg>
