<svg width="14" height="14" viewBox="0 0 14 14" fill="none" xmlns="http://www.w3.org/2000/svg">
<path d="M7.70807 7L11.2969 2.72207C11.3571 2.65098 11.3065 2.54297 11.2135 2.54297H10.1225C10.0583 2.54297 9.99674 2.57168 9.95436 2.6209L6.9944 6.14961L4.03444 2.6209C3.99342 2.57168 3.9319 2.54297 3.86627 2.54297H2.77526C2.68229 2.54297 2.6317 2.65098 2.69186 2.72207L6.28072 7L2.69186 11.2779C2.67838 11.2938 2.66974 11.3132 2.66695 11.3338C2.66416 11.3544 2.66734 11.3754 2.67613 11.3942C2.68491 11.4131 2.69891 11.429 2.71649 11.4402C2.73406 11.4513 2.75445 11.4571 2.77526 11.457H3.86627C3.93053 11.457 3.99205 11.4283 4.03444 11.3791L6.9944 7.85039L9.95436 11.3791C9.99537 11.4283 10.0569 11.457 10.1225 11.457H11.2135C11.3065 11.457 11.3571 11.349 11.2969 11.2779L7.70807 7Z" fill="#98A2B3"/>
</svg>
