<svg width="48" height="48" viewBox="0 0 48 48" fill="none" xmlns="http://www.w3.org/2000/svg">
<path d="M17 29.3333C17 31.9107 19.0893 34 21.6667 34H26C28.7614 34 31 31.7614 31 29C31 26.2386 28.7614 24 26 24H22C19.2386 24 17 21.7614 17 19C17 16.2386 19.2386 14 22 14H26.3333C28.9107 14 31 16.0893 31 18.6667M24 11V14M24 34V37M44 24C44 35.0457 35.0457 44 24 44C12.9543 44 4 35.0457 4 24C4 12.9543 12.9543 4 24 4C35.0457 4 44 12.9543 44 24Z" stroke="#655CFF" stroke-width="3" stroke-linecap="round" stroke-linejoin="round"/>
</svg>
