<svg width="308" height="284" viewBox="0 0 308 284" fill="none" xmlns="http://www.w3.org/2000/svg">
<g clip-path="url(#clip0_2001_375)">
<rect x="0.79303" width="306.882" height="664.502" rx="19.6404" fill="white"/>
<g filter="url(#filter0_f_2001_375)">
<path fill-rule="evenodd" clip-rule="evenodd" d="M75.0647 -446.002C149.229 -445.898 188.452 -362.752 239.165 -308.655C287.116 -257.503 357.83 -214.714 357.594 -144.613C357.358 -74.5959 288.627 -30.1229 238.063 18.3277C189.174 65.1722 142.226 134.788 75.0647 126.104C9.08609 117.573 0.286972 23.8475 -50.5976 -18.9948C-112.277 -70.9258 -235.758 -64.7142 -246.47 -144.613C-256.939 -222.694 -146.982 -255.228 -89.4941 -309.114C-35.3787 -359.838 0.880646 -446.105 75.0647 -446.002Z" fill="#C2E7FC"/>
</g>
<rect opacity="0.35" x="274.923" y="13.505" width="17.1854" height="8.4563" rx="1.7731" stroke="#4F4F4F" stroke-width="0.818352"/>
<path opacity="0.4" d="M293.335 16.0964V19.3698C293.994 19.0926 294.422 18.4477 294.422 17.7331C294.422 17.0186 293.994 16.3737 293.335 16.0964Z" fill="#4F4F4F"/>
<rect x="276.15" y="14.7325" width="14.7303" height="6.00125" rx="1.09114" fill="#4F4F4F"/>
<path d="M264.148 14.9631C265.969 14.9632 267.72 15.6622 269.039 16.9156C269.138 17.0123 269.297 17.0111 269.395 16.9128L270.345 15.9551C270.394 15.9052 270.422 15.8377 270.422 15.7675C270.421 15.6972 270.393 15.63 270.343 15.5807C266.879 12.2646 261.416 12.2646 257.953 15.5807C257.902 15.63 257.874 15.6971 257.874 15.7674C257.873 15.8377 257.901 15.9052 257.95 15.9551L258.9 16.9128C258.998 17.0113 259.157 17.0125 259.256 16.9156C260.576 15.6621 262.327 14.9631 264.148 14.9631Z" fill="#4F4F4F"/>
<path d="M264.148 18.0791C265.148 18.079 266.113 18.4505 266.854 19.1214C266.955 19.2166 267.113 19.2145 267.21 19.1167L268.159 18.159C268.209 18.1088 268.237 18.0406 268.236 17.9698C268.235 17.899 268.206 17.8314 268.155 17.7822C265.897 15.6836 262.401 15.6836 260.143 17.7822C260.092 17.8314 260.062 17.899 260.062 17.9698C260.061 18.0407 260.089 18.1088 260.139 18.159L261.087 19.1167C261.185 19.2145 261.343 19.2166 261.443 19.1214C262.184 18.451 263.148 18.0795 264.148 18.0791Z" fill="#4F4F4F"/>
<path d="M265.971 20.3647C266.022 20.315 266.05 20.2465 266.048 20.1755C266.047 20.1045 266.016 20.0372 265.963 19.9896C264.915 19.1039 263.38 19.1039 262.332 19.9896C262.28 20.0372 262.249 20.1044 262.247 20.1754C262.246 20.2465 262.274 20.3149 262.324 20.3647L263.966 22.0194C264.014 22.0681 264.079 22.0954 264.148 22.0954C264.216 22.0954 264.282 22.0681 264.33 22.0194L265.971 20.3647Z" fill="#4F4F4F"/>
<path d="M240.688 18.8243H241.507C241.958 18.8243 242.325 19.1907 242.325 19.6427V21.2794C242.325 21.7314 241.958 22.0977 241.507 22.0977H240.688C240.236 22.0977 239.87 21.7314 239.87 21.2794V19.6427C239.87 19.1907 240.236 18.8243 240.688 18.8243Z" fill="#4F4F4F"/>
<path d="M244.507 17.1876H245.325C245.777 17.1876 246.144 17.554 246.144 18.006V21.2794C246.144 21.7313 245.777 22.0977 245.325 22.0977H244.507C244.055 22.0977 243.689 21.7313 243.689 21.2794V18.006C243.689 17.554 244.055 17.1876 244.507 17.1876Z" fill="#4F4F4F"/>
<path d="M248.326 15.2781H249.145C249.596 15.2781 249.963 15.6445 249.963 16.0964V21.2793C249.963 21.7313 249.596 22.0977 249.145 22.0977H248.326C247.874 22.0977 247.508 21.7313 247.508 21.2793V16.0964C247.508 15.6445 247.874 15.2781 248.326 15.2781Z" fill="#4F4F4F"/>
<path d="M252.145 13.3685H252.963C253.415 13.3685 253.782 13.7349 253.782 14.1869V21.2793C253.782 21.7312 253.415 22.0976 252.963 22.0976H252.145C251.693 22.0976 251.327 21.7312 251.327 21.2793V14.1869C251.327 13.7349 251.693 13.3685 252.145 13.3685V13.3685Z" fill="#4F4F4F"/>
<path d="M27.138 23.726V22.0657H22.9064V20.801C24.0272 18.853 25.2559 16.8631 26.4307 15.0769H28.6184V20.789H29.7812V22.0657H28.6184V23.726H27.138ZM24.3449 20.825H27.1619V16.3116H27.072C26.185 17.6662 25.184 19.2666 24.3449 20.7351V20.825ZM32.2629 18.1218C31.7175 18.1218 31.3099 17.7022 31.3099 17.1747C31.3099 16.6413 31.7175 16.2277 32.2629 16.2277C32.8143 16.2277 33.2159 16.6413 33.2159 17.1747C33.2159 17.7022 32.8143 18.1218 32.2629 18.1218ZM32.2629 22.5692C31.7175 22.5692 31.3099 22.1556 31.3099 21.6221C31.3099 21.0887 31.7175 20.6751 32.2629 20.6751C32.8143 20.6751 33.2159 21.0887 33.2159 21.6221C33.2159 22.1556 32.8143 22.5692 32.2629 22.5692ZM34.9903 23.726V22.683L37.8314 19.782C39.0061 18.5953 39.3358 18.1577 39.3358 17.4924V17.4744C39.3358 16.6773 38.7904 16.1019 37.8913 16.1019C36.9743 16.1019 36.3569 16.7072 36.3569 17.6003L36.3509 17.6243L34.9124 17.6183L34.9064 17.6003C34.9064 15.988 36.1651 14.8611 37.9692 14.8611C39.6535 14.8611 40.8642 15.8861 40.8642 17.3426V17.3605C40.8642 18.3435 40.3907 19.1227 38.8143 20.6392L37.0821 22.3174V22.4433H40.9961V23.726H34.9903ZM45.6355 23.9417C43.5796 23.9417 42.3449 22.1975 42.3449 19.4044V19.3924C42.3449 16.5993 43.5796 14.8611 45.6355 14.8611C47.6914 14.8611 48.9381 16.5993 48.9381 19.3924V19.4044C48.9381 22.1975 47.6914 23.9417 45.6355 23.9417ZM45.6355 22.689C46.7384 22.689 47.3797 21.4543 47.3797 19.4044V19.3924C47.3797 17.3426 46.7384 16.1198 45.6355 16.1198C44.5327 16.1198 43.9033 17.3426 43.9033 19.3924V19.4044C43.9033 21.4543 44.5327 22.689 45.6355 22.689Z" fill="#4F4F4F"/>
<rect x="115.448" y="16.3671" width="77.7434" height="9.82022" rx="4.91011" fill="#4F4F4F"/>
<g filter="url(#filter1_f_2001_375)">
<path fill-rule="evenodd" clip-rule="evenodd" d="M263.467 231.898C341.403 228.402 417.096 170.887 484.161 199.401C553.325 228.808 559.126 299.323 557.018 356.707C554.972 412.433 534.406 471.555 472.9 505.987C415.536 538.1 334.426 533.083 263.467 521.042C208.129 511.651 180.185 472.81 134.579 448.577C72.9861 415.849 -30.5199 410.371 -45.8055 356.707C-61.3778 302.037 0.803024 245.515 68.9099 218.03C127.871 194.236 195.846 234.932 263.467 231.898Z" fill="#8D4DEE"/>
</g>
</g>
<rect x="1.40679" y="0.613764" width="305.654" height="663.274" rx="19.0267" stroke="white" stroke-width="1.22753"/>
<defs>
<filter id="filter0_f_2001_375" x="-656.344" y="-855.178" width="1423.11" height="1391.2" filterUnits="userSpaceOnUse" color-interpolation-filters="sRGB">
<feFlood flood-opacity="0" result="BackgroundImageFix"/>
<feBlend mode="normal" in="SourceGraphic" in2="BackgroundImageFix" result="shape"/>
<feGaussianBlur stdDeviation="204.588" result="effect1_foregroundBlur_2001_375"/>
</filter>
<filter id="filter1_f_2001_375" x="-293.728" y="-54.0112" width="1096.59" height="829.809" filterUnits="userSpaceOnUse" color-interpolation-filters="sRGB">
<feFlood flood-opacity="0" result="BackgroundImageFix"/>
<feBlend mode="normal" in="SourceGraphic" in2="BackgroundImageFix" result="shape"/>
<feGaussianBlur stdDeviation="122.753" result="effect1_foregroundBlur_2001_375"/>
</filter>
<clipPath id="clip0_2001_375">
<rect x="0.79303" width="306.882" height="664.502" rx="19.6404" fill="white"/>
</clipPath>
</defs>
</svg>
