<svg width="203" height="20" viewBox="0 0 203 20" fill="none" xmlns="http://www.w3.org/2000/svg">
<g clip-path="url(#clip0_336_9438)">
<mask id="mask0_336_9438" style="mask-type:luminance" maskUnits="userSpaceOnUse" x="0" y="0" width="29" height="20">
<path d="M0 0H28.75V20H0V0Z" fill="white"/>
</mask>
<g mask="url(#mask0_336_9438)">
<path d="M0.0860724 19.3721C-0.0939276 19.5761 0.0360724 19.9211 0.291072 19.9211H10.5381C10.6007 19.9203 10.6625 19.9062 10.7192 19.8796C10.7759 19.8531 10.8264 19.8147 10.8671 19.7671L17.5571 12.1771V0.343103C17.5571 0.0551025 17.2451 -0.0878975 17.0641 0.117103L0.0860724 19.3721ZM17.5581 12.1781V19.5981C17.5581 19.7761 17.6871 19.9211 17.8461 19.9211H28.3981C28.5581 19.9211 28.6871 19.7761 28.6871 19.5981V0.342103C28.6871 0.0541025 28.3741 -0.0888975 28.1931 0.116103L17.5581 12.1781Z" fill="#8B8B8B"/>
</g>
<path d="M42.5 16.718V3.75H44.1L48.901 12.708L53.684 3.75H55.248V16.718H53.537V7.208L49.472 14.732H48.312L44.23 7.245V16.718H42.5ZM60.514 16.718V3.75H68.902V5.295H62.354V9.36H68.516V10.906H62.354V15.173H68.902V16.718H60.514ZM73.554 16.718V3.75H78.924C80.323 3.75 81.402 4.087 82.162 4.762C82.922 5.424 83.302 6.356 83.302 7.558C83.302 8.526 83.045 9.324 82.53 9.949C82.015 10.562 81.286 10.973 80.341 11.181C80.93 11.378 81.427 11.85 81.831 12.598L84.075 16.718H81.978L79.734 12.579C79.477 12.101 79.176 11.782 78.833 11.623C78.502 11.451 78.073 11.365 77.545 11.365H75.467V16.718H73.554ZM75.467 9.931H78.612C80.501 9.931 81.445 9.151 81.445 7.594C81.445 6.049 80.501 5.277 78.612 5.277H75.467V9.931ZM88.21 16.718V3.75H90.123V9.581H90.16L96.175 3.75H98.529L91.981 10.023L98.897 16.718H96.506L90.16 10.666H90.123V16.718H88.21ZM102.237 16.718V3.75H104.15V15.081H110.57V16.718H102.237ZM114.594 16.718V3.75H122.982V5.295H116.433V9.36H122.595V10.906H116.433V15.173H122.982V16.718H114.594ZM137.837 16.718V5.35H133.238V3.75H144.33V5.35H139.731V16.718H137.837ZM148.125 16.718V3.75H153.496C154.894 3.75 155.974 4.087 156.734 4.762C157.494 5.424 157.874 6.356 157.874 7.558C157.874 8.526 157.617 9.324 157.102 9.949C156.587 10.562 155.857 10.973 154.913 11.181C155.501 11.378 155.998 11.85 156.403 12.598L158.647 16.718H156.55L154.306 12.579C154.048 12.101 153.748 11.782 153.404 11.623C153.073 11.451 152.644 11.365 152.117 11.365H150.038V16.718H148.125ZM150.038 9.931H153.184C155.072 9.931 156.016 9.151 156.016 7.594C156.016 6.049 155.072 5.277 153.184 5.277H150.038V9.931ZM161.26 16.718L167.036 3.75H168.617L174.412 16.718H172.462L171.101 13.554H164.534L163.191 16.718H161.26ZM167.808 5.865L165.214 12.009H170.457L167.845 5.865H167.808ZM178.317 16.718V3.75H182.898C185.031 3.75 186.675 4.308 187.827 5.424C188.992 6.54 189.575 8.14 189.575 10.224C189.575 12.31 188.992 13.916 187.827 15.044C186.675 16.16 185.031 16.718 182.898 16.718H178.317ZM180.23 15.118H182.787C185.988 15.118 187.588 13.487 187.588 10.225C187.588 6.975 185.988 5.35 182.787 5.35H180.23V15.118ZM194.339 16.718V3.75H202.727V5.295H196.178V9.36H202.34V10.906H196.178V15.173H202.727V16.718H194.339Z" fill="#8B8B8B"/>
</g>
<defs>
<clipPath id="clip0_336_9438">
<rect width="203" height="20" fill="white"/>
</clipPath>
</defs>
</svg>
