<svg width="1440" height="220" viewBox="0 0 1440 220" fill="current" xmlns="http://www.w3.org/2000/svg">
<path fill-rule="evenodd" clip-rule="evenodd" d="M205.7 65.8423C195.023 65.8423 186.244 62.7578 179.363 56.5888C172.72 50.1826 169.398 42.3527 169.398 33.0991C169.398 23.6084 172.72 15.7784 179.363 9.60943C186.244 3.20314 195.023 0 205.7 0C216.14 0 224.682 3.20314 231.326 9.60943C238.206 15.7784 241.647 23.6084 241.647 33.0991C241.647 42.3527 238.206 50.1826 231.326 56.5888C224.682 62.7578 216.14 65.8423 205.7 65.8423ZM235.952 86.4848V285.08H175.093V86.4848H235.952ZM361.916 92.1776C351.239 97.8721 343.053 105.346 337.358 114.6V1.4674H276.499V285.078H337.358V257.317C343.29 266.571 351.476 274.045 361.916 279.739C372.356 285.197 384.575 287.925 398.574 287.925C414.946 287.925 429.775 283.773 443.062 275.469C456.349 266.927 466.789 254.945 474.382 239.522C482.212 223.862 486.127 205.83 486.127 185.425C486.127 165.019 482.212 147.106 474.382 131.683C466.789 116.26 456.349 104.397 443.062 96.0926C429.775 87.7881 414.946 83.6359 398.574 83.6359C384.812 83.6359 372.593 86.4831 361.916 92.1776ZM411.387 149.834C419.928 158.376 424.199 170.239 424.199 185.425C424.199 200.61 419.928 212.711 411.387 221.727C402.845 230.506 392.524 234.895 380.423 234.895C368.322 234.895 358.001 230.506 349.459 221.727C341.155 212.948 337.003 200.966 337.003 185.781C337.003 170.595 341.155 158.613 349.459 149.834C358.001 141.055 368.322 136.666 380.423 136.666C392.761 136.666 403.082 141.055 411.387 149.834ZM662.456 131.683C654.864 147.106 651.068 165.02 651.068 185.425C651.068 205.83 654.864 223.863 662.456 239.523C670.286 254.945 680.845 266.927 694.132 275.469C707.419 283.773 722.13 287.926 738.264 287.926C752.263 287.926 764.482 285.078 774.922 279.384C785.599 273.689 793.904 266.215 799.836 256.962V285.078H860.695V86.4836H799.836V114.6C794.141 105.347 785.955 97.8725 775.278 92.178C764.838 86.4836 752.619 83.6363 738.62 83.6363C722.248 83.6363 707.419 87.7885 694.132 96.093C680.845 104.397 670.286 116.261 662.456 131.683ZM787.023 149.835C795.565 158.614 799.836 170.596 799.836 185.781C799.836 200.966 795.565 212.948 787.023 221.727C778.719 230.506 768.516 234.896 756.415 234.896C744.314 234.896 733.993 230.506 725.452 221.727C717.147 212.711 712.995 200.61 712.995 185.425C712.995 170.24 717.147 158.376 725.452 149.835C733.993 141.056 744.314 136.666 756.415 136.666C768.516 136.666 778.719 141.056 787.023 149.835ZM1077.69 107.127C1063.93 91.942 1045.43 84.3493 1022.17 84.3493C1009.12 84.3493 997.379 86.9593 986.939 92.1792C976.499 97.1619 968.195 104.043 962.026 112.822V86.4848H901.166V285.08H962.026V177.24C962.026 163.953 965.466 153.632 972.347 146.277C979.228 138.921 988.481 135.244 1000.11 135.244C1011.73 135.244 1020.99 138.921 1027.87 146.277C1034.75 153.632 1038.19 163.953 1038.19 177.24V285.08H1098.69V169.055C1098.69 142.718 1091.69 122.075 1077.69 107.127ZM575.356 119.584C582.474 108.669 591.372 100.128 602.049 93.9588C612.726 87.5525 624.589 84.3493 637.639 84.3493V148.768H620.912C605.727 148.768 594.338 152.09 586.745 158.733C579.152 165.14 575.356 176.529 575.356 192.9V285.08H514.496V86.4848H575.356V119.584ZM88.2594 86.4849L45.195 228.135L2.13054 86.4849H-63L7.46911 285.08H82.565L153.034 86.4849H88.2594ZM1293.53 233.473H1226.4C1219.76 233.473 1215.01 232.168 1212.16 229.558C1209.32 226.948 1207.89 222.677 1207.89 216.745V137.023H1247.75V86.484H1207.89V38.081H1147.03V86.484H1122.83V137.023H1147.03V216.033C1147.03 240.472 1153.2 258.149 1165.54 269.063C1177.88 279.74 1195.08 285.079 1217.15 285.079L1264.67 285.079H1334.22L1379.39 198.218L1430.66 285.079H1502L1418.83 144.485L1498.77 1.4674H1429.22L1384.77 87.1164L1334.22 1.4674H1262.88L1345.33 140.849L1293.53 233.473Z" fill="#3D3D3D"/>
</svg>
