<svg width="208" height="40" viewBox="0 0 375 72" fill="none" xmlns="http://www.w3.org/2000/svg">
<path d="M36 8C20.5581 8 8 20.5555 8 35.9943C8 47.0909 14.4916 56.7056 23.8785 61.2316V61.2545H23.9245C27.5782 63.0121 31.6799 64 36 64C51.4419 64 64 51.4445 64 36.0057C64 20.5555 51.4419 8 36 8ZM36 10.2974C50.1667 10.2974 61.7021 21.8306 61.7021 35.9943C61.7021 40.0607 60.7485 43.9206 59.0595 47.3436C55.3597 45.5516 51.6027 44.2192 47.8112 43.3116V21.8765C47.8112 21.1299 47.2253 20.5325 46.4899 20.5325H41.7792H29.9105H25.1998C24.476 20.5325 23.8785 21.1299 23.8785 21.8765V43.4151C20.2019 44.3225 16.5482 45.632 12.952 47.3551C11.2515 43.9206 10.2979 40.0722 10.2979 35.9943C10.2979 21.8306 21.8334 10.2974 36 10.2974ZM14.4341 49.9396C17.4789 48.4351 20.6385 47.2748 23.89 46.4707V58.647C20.041 56.5909 16.7895 53.5812 14.4341 49.9396ZM29.9105 60.9559V32.2724C29.9105 28.9527 32.6336 26.2072 35.8851 26.2072C39.1365 26.2072 41.7792 28.8952 41.7792 32.2035C41.7792 32.2265 41.7677 32.2495 41.7677 32.2724H41.7792V42.2548C39.0101 41.9333 36.2299 41.8297 33.4493 41.9792L31.1629 45.2989C34.7245 45.0003 38.1944 45.0232 41.6184 45.4139C41.6528 45.4139 41.6757 45.4139 41.7104 45.4254C41.7333 45.4254 41.7563 45.4254 41.7907 45.4369C42.3883 45.5057 44.5597 45.7814 46.5475 46.2754L41.7907 47.8949V61.048C39.9293 61.4728 37.9992 61.7141 36.0229 61.7141C33.8974 61.6911 31.8638 61.4269 29.9105 60.9559ZM47.7997 58.808V46.5281C51.0397 47.3436 54.2453 48.5383 57.4624 50.1005C55.0496 53.7651 51.7176 56.7747 47.7997 58.808Z" fill="#8B8B8B"/>
<path d="M96 50.4121V15H105.614V42.6657H119.931V50.4121H96Z" fill="#8B8B8B"/>
<path d="M123.955 50.0403V23.4813H133.5V50.0403H123.955ZM128.728 20.7147C127.437 20.7147 126.33 20.2882 125.408 19.4352C124.486 18.5821 124.024 17.5562 124.024 16.3573C124.024 15.1585 124.486 14.1326 125.408 13.2795C126.33 12.4265 127.437 12 128.728 12C130.03 12 131.137 12.4265 132.048 13.2795C132.97 14.1326 133.431 15.1585 133.431 16.3573C133.431 17.5562 132.97 18.5821 132.048 19.4352C131.137 20.2882 130.03 20.7147 128.728 20.7147Z" fill="#8B8B8B"/>
<path d="M155.516 59.9994V45.6824H155.378C155.009 46.5815 154.478 47.3884 153.787 48.1031C153.107 48.8063 152.277 49.3654 151.297 49.7804C150.329 50.1838 149.222 50.3856 147.977 50.3856C146.086 50.3856 144.346 49.8899 142.755 48.8985C141.176 47.9072 139.908 46.4029 138.951 44.3856C138.006 42.3683 137.533 39.8265 137.533 36.7602C137.533 33.5556 138.029 30.9504 139.02 28.9446C140.023 26.9389 141.314 25.4691 142.893 24.5354C144.484 23.6017 146.156 23.1348 147.908 23.1348C149.222 23.1348 150.375 23.3654 151.366 23.8265C152.357 24.2761 153.187 24.8812 153.856 25.6421C154.525 26.3913 155.032 27.2155 155.378 28.1147H155.585V23.4807H165.061V59.9994H155.516ZM151.504 43.0542C152.38 43.0542 153.13 42.8006 153.752 42.2933C154.386 41.7746 154.87 41.0484 155.205 40.1147C155.55 39.1694 155.723 38.0513 155.723 36.7602C155.723 35.4461 155.55 34.3222 155.205 33.3884C154.87 32.4432 154.386 31.7227 153.752 31.2271C153.13 30.7199 152.38 30.4663 151.504 30.4663C150.628 30.4663 149.879 30.7199 149.256 31.2271C148.646 31.7227 148.173 32.4432 147.839 33.3884C147.516 34.3222 147.354 35.4461 147.354 36.7602C147.354 38.0743 147.516 39.204 147.839 40.1493C148.173 41.083 148.646 41.8034 149.256 42.3106C149.879 42.8063 150.628 43.0542 151.504 43.0542Z" fill="#8B8B8B"/>
<path d="M187.111 38.4199V23.4805H196.656V50.0395H187.595V44.9906H187.318C186.742 46.6851 185.733 48.0107 184.293 48.9675C182.852 49.9127 181.14 50.3854 179.157 50.3854C177.301 50.3854 175.676 49.9589 174.281 49.1058C172.898 48.2528 171.82 47.077 171.048 45.5785C170.287 44.0799 169.901 42.3623 169.889 40.4257V23.4805H179.434V38.4199C179.445 39.7341 179.78 40.7658 180.437 41.5151C181.105 42.2643 182.039 42.639 183.238 42.639C184.033 42.639 184.719 42.4718 185.295 42.1375C185.883 41.7917 186.333 41.3076 186.644 40.6851C186.967 40.0511 187.122 39.296 187.111 38.4199Z" fill="#8B8B8B"/>
<path d="M201.51 50.0403V23.4813H211.055V50.0403H201.51ZM206.282 20.7147C204.991 20.7147 203.885 20.2882 202.963 19.4352C202.04 18.5821 201.579 17.5562 201.579 16.3573C201.579 15.1585 202.04 14.1326 202.963 13.2795C203.885 12.4265 204.991 12 206.282 12C207.585 12 208.692 12.4265 209.602 13.2795C210.524 14.1326 210.986 15.1585 210.986 16.3573C210.986 17.5562 210.524 18.5821 209.602 19.4352C208.692 20.2882 207.585 20.7147 206.282 20.7147Z" fill="#8B8B8B"/>
<path d="M225.532 50.3869C223.641 50.3869 221.901 49.8912 220.31 48.8998C218.731 47.9085 217.463 46.4042 216.506 44.3869C215.561 42.3696 215.088 39.8278 215.088 36.7615C215.088 33.5569 215.584 30.9517 216.575 28.9459C217.578 26.9402 218.869 25.4704 220.448 24.5367C222.039 23.603 223.71 23.1361 225.463 23.1361C226.777 23.1361 227.929 23.3667 228.921 23.8278C229.912 24.2774 230.742 24.8825 231.411 25.6434C232.079 26.3926 232.586 27.2168 232.932 28.116H233.071V14.6289H242.615V50.041H233.14V45.6837H232.932C232.563 46.5828 232.033 47.3897 231.342 48.1044C230.661 48.8076 229.831 49.3667 228.852 49.7817C227.883 50.1851 226.777 50.3869 225.532 50.3869ZM229.059 43.0555C229.935 43.0555 230.684 42.8019 231.307 42.2946C231.941 41.7759 232.425 41.0497 232.759 40.116C233.105 39.1707 233.278 38.0526 233.278 36.7615C233.278 35.4474 233.105 34.3235 232.759 33.3897C232.425 32.4445 231.941 31.724 231.307 31.2284C230.684 30.7212 229.935 30.4676 229.059 30.4676C228.183 30.4676 227.434 30.7212 226.811 31.2284C226.2 31.724 225.728 32.4445 225.393 33.3897C225.071 34.3235 224.909 35.4474 224.909 36.7615C224.909 38.0756 225.071 39.2053 225.393 40.1506C225.728 41.0843 226.2 41.8047 226.811 42.3119C227.434 42.8076 228.183 43.0555 229.059 43.0555Z" fill="#8B8B8B"/>
<path d="M271.578 32.1262H262.794C262.748 31.5844 262.558 31.1176 262.223 30.7256C261.889 30.3337 261.457 30.034 260.927 29.8265C260.408 29.6075 259.831 29.498 259.197 29.498C258.379 29.498 257.676 29.6478 257.088 29.9475C256.5 30.2472 256.212 30.6738 256.223 31.2271C256.212 31.619 256.379 31.9821 256.725 32.3164C257.082 32.6507 257.768 32.9101 258.782 33.0945L264.177 34.0628C266.898 34.5585 268.921 35.3942 270.246 36.57C271.584 37.7343 272.258 39.2962 272.269 41.2559C272.258 43.1464 271.693 44.789 270.575 46.1838C269.468 47.5671 267.952 48.6392 266.027 49.4C264.114 50.1493 261.929 50.5239 259.474 50.5239C255.416 50.5239 252.241 49.6939 249.947 48.034C247.664 46.374 246.39 44.1838 246.125 41.4634H255.601C255.728 42.3049 256.143 42.9562 256.846 43.4173C257.561 43.8668 258.46 44.0916 259.543 44.0916C260.419 44.0916 261.14 43.9418 261.705 43.6421C262.281 43.3423 262.575 42.9158 262.586 42.3625C262.575 41.8553 262.321 41.4519 261.826 41.1521C261.342 40.8524 260.581 40.6104 259.543 40.4259L254.84 39.5959C252.131 39.1233 250.102 38.2242 248.754 36.8985C247.405 35.5729 246.736 33.8668 246.748 31.7804C246.736 29.936 247.22 28.374 248.2 27.0945C249.192 25.8034 250.604 24.8236 252.437 24.155C254.281 23.4749 256.465 23.1348 258.99 23.1348C262.829 23.1348 265.854 23.9302 268.068 25.521C270.293 27.1118 271.463 29.3135 271.578 32.1262Z" fill="#8B8B8B"/>
<path d="M280.63 50.0395L273.99 23.4805H283.535L286.578 39.6649H286.785L290.174 23.4805H299.442L302.97 39.5266H303.177L306.082 23.4805H315.627L308.987 50.0395H298.682L294.947 35.7917H294.67L290.935 50.0395H280.63Z" fill="#8B8B8B"/>
<path d="M325.932 50.4547C324.238 50.4547 322.739 50.1781 321.437 49.6248C320.146 49.0599 319.131 48.2069 318.393 47.0657C317.656 45.9245 317.287 44.472 317.287 42.7083C317.287 41.2559 317.535 40.0167 318.03 38.9908C318.526 37.9533 319.218 37.106 320.105 36.449C320.993 35.7919 322.024 35.2905 323.2 34.9446C324.388 34.5988 325.667 34.374 327.039 34.2703C328.526 34.155 329.719 34.0167 330.618 33.8553C331.529 33.6824 332.186 33.4461 332.589 33.1464C332.993 32.8351 333.195 32.4259 333.195 31.9187V31.8495C333.195 31.1579 332.929 30.6276 332.399 30.2588C331.869 29.8899 331.189 29.7055 330.359 29.7055C329.448 29.7055 328.705 29.9072 328.128 30.3106C327.563 30.7026 327.223 31.3078 327.108 32.1262H318.324C318.439 30.5124 318.952 29.0253 319.863 27.6651C320.785 26.2933 322.128 25.1982 323.892 24.3798C325.656 23.5498 327.857 23.1348 330.497 23.1348C332.399 23.1348 334.105 23.3596 335.615 23.8092C337.125 24.2472 338.411 24.864 339.471 25.6593C340.532 26.4432 341.339 27.3654 341.892 28.4259C342.457 29.4749 342.739 30.6161 342.739 31.8495V50.0397H333.817V46.3049H333.61C333.079 47.2962 332.434 48.0974 331.673 48.7083C330.924 49.3193 330.065 49.7631 329.097 50.0397C328.14 50.3164 327.085 50.4547 325.932 50.4547ZM329.045 44.4374C329.771 44.4374 330.451 44.2876 331.085 43.9879C331.731 43.6882 332.255 43.2559 332.659 42.691C333.062 42.1262 333.264 41.4403 333.264 40.6334V38.4201C333.01 38.5239 332.739 38.6219 332.451 38.7141C332.174 38.8063 331.875 38.8928 331.552 38.9735C331.241 39.0542 330.906 39.1291 330.549 39.1982C330.203 39.2674 329.84 39.3308 329.46 39.3884C328.722 39.5037 328.117 39.6939 327.644 39.9591C327.183 40.2127 326.837 40.5297 326.607 40.9101C326.388 41.2789 326.278 41.6939 326.278 42.155C326.278 42.8928 326.537 43.4576 327.056 43.8495C327.575 44.2415 328.238 44.4374 329.045 44.4374Z" fill="#8B8B8B"/>
<path d="M347.3 59.9994V23.4807H356.775V28.1147H356.983C357.329 27.2155 357.836 26.3913 358.504 25.6421C359.173 24.8812 360.003 24.2761 360.994 23.8265C361.986 23.3654 363.138 23.1348 364.452 23.1348C366.205 23.1348 367.87 23.6017 369.45 24.5354C371.04 25.4691 372.331 26.9389 373.323 28.9446C374.326 30.9504 374.827 33.5556 374.827 36.7602C374.827 39.8265 374.349 42.3683 373.392 44.3856C372.447 46.4029 371.179 47.9072 369.588 48.8985C368.009 49.8899 366.274 50.3856 364.383 50.3856C363.138 50.3856 362.026 50.1838 361.046 49.7804C360.078 49.3654 359.248 48.8063 358.556 48.1031C357.876 47.3884 357.352 46.5815 356.983 45.6824H356.844V59.9994H347.3ZM356.637 36.7602C356.637 38.0513 356.804 39.1694 357.138 40.1147C357.484 41.0484 357.968 41.7746 358.591 42.2933C359.225 42.8006 359.98 43.0542 360.856 43.0542C361.732 43.0542 362.476 42.8063 363.086 42.3106C363.709 41.8034 364.182 41.083 364.504 40.1493C364.839 39.204 365.006 38.0743 365.006 36.7602C365.006 35.4461 364.839 34.3222 364.504 33.3884C364.182 32.4432 363.709 31.7227 363.086 31.2271C362.476 30.7199 361.732 30.4663 360.856 30.4663C359.98 30.4663 359.225 30.7199 358.591 31.2271C357.968 31.7227 357.484 32.4432 357.138 33.3884C356.804 34.3222 356.637 35.4461 356.637 36.7602Z" fill="#8B8B8B"/>
</svg>
