<svg width="258" height="40" viewBox="0 0 258 40" fill="none" xmlns="http://www.w3.org/2000/svg">
<path d="M49.4517 30.834C48.8518 30.834 48.4276 30.7097 48.1793 30.4616C47.9517 30.2133 47.8379 29.8202 47.8379 29.2822V11.3129C47.8379 10.775 47.962 10.3818 48.2103 10.1336C48.4586 9.8646 48.8723 9.7301 49.4517 9.7301H57.0553C59.9519 9.7301 62.0829 10.3405 63.4486 11.5612C64.8141 12.7819 65.4969 14.6026 65.4969 17.0234C65.4969 19.4234 64.8141 21.2337 63.4486 22.4544C62.1037 23.6546 59.9726 24.2546 57.0553 24.2546H54.107V29.2822C54.107 29.8202 53.9829 30.2133 53.7346 30.4616C53.4862 30.7097 53.0621 30.834 52.4621 30.834H49.4517ZM56.5588 19.7544C57.4071 19.7544 58.0589 19.5269 58.5141 19.0717C58.9898 18.6165 59.2278 17.9337 59.2278 17.0234C59.2278 16.0923 58.9898 15.3992 58.5141 14.944C58.0589 14.4888 57.4071 14.2612 56.5588 14.2612H54.107V19.7544H56.5588Z" fill="#8B8B8B"/>
<path d="M72.826 31.2994C70.8813 31.2994 69.3192 30.6787 68.1398 29.4375C66.9811 28.1753 66.4019 26.4063 66.4019 24.1303C66.4019 22.3924 66.795 20.8716 67.5811 19.5682C68.3881 18.2647 69.5157 17.2613 70.964 16.5578C72.4331 15.8336 74.1192 15.4716 76.0227 15.4716C77.5952 15.4716 78.9815 15.6474 80.1814 15.9992C81.4021 16.3302 82.5193 16.8164 83.5332 17.4578V29.8719C83.5332 30.265 83.4609 30.5236 83.3159 30.6477C83.1711 30.7719 82.8814 30.834 82.447 30.834H79.2814C79.0538 30.834 78.8779 30.803 78.7539 30.7407C78.6296 30.6582 78.5263 30.5339 78.4435 30.3683L78.0399 29.4375C77.4399 30.0787 76.7159 30.5444 75.8676 30.834C75.04 31.1443 74.0262 31.2994 72.826 31.2994ZM75.1538 27.0786C75.9606 27.0786 76.5916 26.8821 77.0468 26.4891C77.502 26.096 77.7296 25.5373 77.7296 24.813V19.9717C77.3366 19.7854 76.84 19.6923 76.24 19.6923C75.1433 19.6923 74.264 20.0751 73.602 20.8406C72.9605 21.6061 72.6399 22.682 72.6399 24.0683C72.6399 26.0752 73.4777 27.0786 75.1538 27.0786Z" fill="#8B8B8B"/>
<path d="M87.8524 30.834C87.2522 30.834 86.828 30.7097 86.5799 30.4616C86.3316 30.2133 86.2075 29.8201 86.2075 29.2822V16.8992C86.2075 16.5268 86.2696 16.2785 86.3936 16.1543C86.5384 16.0095 86.828 15.9371 87.2627 15.9371H90.4593C90.7075 15.9371 90.8938 15.9785 91.0178 16.0612C91.1626 16.1233 91.2454 16.2474 91.2662 16.4337L91.4212 17.3647C92.0007 16.7854 92.7559 16.3302 93.6868 15.9992C94.6386 15.6474 95.6938 15.4716 96.8525 15.4716C98.5283 15.4716 99.8836 15.9474 100.918 16.8992C101.953 17.8302 102.47 19.2165 102.47 21.0579V29.2822C102.47 29.8201 102.346 30.2133 102.097 30.4616C101.87 30.7097 101.456 30.834 100.856 30.834H97.8456C97.2456 30.834 96.8112 30.7097 96.5421 30.4616C96.2938 30.2133 96.1697 29.8201 96.1697 29.2822V21.4613C96.1697 20.8406 96.0352 20.3959 95.7663 20.1268C95.4972 19.8578 95.0731 19.7234 94.4938 19.7234C93.8731 19.7234 93.3765 19.8889 93.0041 20.2198C92.6524 20.551 92.4766 21.0061 92.4766 21.5856V29.2822C92.4766 29.8201 92.3523 30.2133 92.1042 30.4616C91.8766 30.7097 91.4627 30.834 90.8627 30.834H87.8524Z" fill="#8B8B8B"/>
<path d="M113.44 31.2994C110.543 31.2994 108.309 30.6269 106.736 29.2822C105.164 27.9374 104.377 25.9822 104.377 23.4165C104.377 21.8442 104.74 20.4579 105.464 19.2578C106.188 18.0578 107.233 17.1268 108.598 16.4647C109.984 15.8026 111.619 15.4716 113.502 15.4716C114.929 15.4716 116.129 15.6061 117.102 15.875C118.095 16.144 118.974 16.5578 119.74 17.1164C119.967 17.2613 120.081 17.4475 120.081 17.6751C120.081 17.8406 119.998 18.0578 119.833 18.3268L118.56 20.5302C118.416 20.82 118.24 20.9648 118.033 20.9648C117.909 20.9648 117.712 20.8821 117.443 20.7165C116.885 20.3649 116.357 20.1061 115.86 19.9406C115.385 19.7751 114.785 19.6923 114.06 19.6923C113.026 19.6923 112.188 20.0234 111.547 20.6855C110.926 21.3475 110.615 22.2578 110.615 23.4165C110.615 24.5959 110.936 25.5063 111.578 26.1475C112.219 26.7683 113.098 27.0786 114.216 27.0786C114.878 27.0786 115.478 26.9856 116.016 26.7993C116.554 26.6132 117.102 26.3546 117.661 26.0235C117.95 25.8579 118.157 25.7751 118.281 25.7751C118.467 25.7751 118.633 25.92 118.778 26.2098L120.174 28.5994C120.278 28.8063 120.33 28.9718 120.33 29.0959C120.33 29.2822 120.205 29.458 119.957 29.6235C119.088 30.1822 118.136 30.5959 117.102 30.865C116.088 31.1546 114.867 31.2994 113.44 31.2994Z" fill="#8B8B8B"/>
<path d="M128.198 31.2994C126.253 31.2994 124.691 30.6787 123.512 29.4375C122.353 28.1753 121.774 26.4063 121.774 24.1303C121.774 22.3924 122.167 20.8716 122.953 19.5682C123.76 18.2647 124.888 17.2613 126.336 16.5578C127.805 15.8336 129.491 15.4716 131.395 15.4716C132.967 15.4716 134.354 15.6474 135.553 15.9992C136.774 16.3302 137.892 16.8164 138.905 17.4578V29.8719C138.905 30.265 138.833 30.5236 138.688 30.6477C138.543 30.7719 138.254 30.834 137.819 30.834H134.654C134.426 30.834 134.25 30.803 134.126 30.7407C134.002 30.6582 133.898 30.5339 133.816 30.3683L133.412 29.4375C132.812 30.0787 132.088 30.5444 131.24 30.834C130.412 31.1443 129.398 31.2994 128.198 31.2994ZM130.526 27.0786C131.333 27.0786 131.964 26.8821 132.419 26.4891C132.874 26.096 133.102 25.5373 133.102 24.813V19.9717C132.709 19.7854 132.212 19.6923 131.612 19.6923C130.516 19.6923 129.636 20.0751 128.974 20.8406C128.333 21.6061 128.012 22.682 128.012 24.0683C128.012 26.0752 128.85 27.0786 130.526 27.0786Z" fill="#8B8B8B"/>
<path d="M158.4 29.6546C158.545 29.8202 158.617 30.0065 158.617 30.2133C158.617 30.3994 158.555 30.5547 158.431 30.6787C158.307 30.7823 158.141 30.834 157.935 30.834H153.124C152.835 30.834 152.617 30.8133 152.472 30.772C152.348 30.7097 152.214 30.596 152.069 30.4306L147.848 24.689V29.2822C147.848 29.8202 147.724 30.2133 147.476 30.4616C147.227 30.7097 146.803 30.834 146.203 30.834H143.193C142.593 30.834 142.169 30.7097 141.92 30.4616C141.693 30.2133 141.579 29.8202 141.579 29.2822V11.3129C141.579 10.775 141.703 10.3818 141.952 10.1336C142.2 9.8646 142.614 9.7301 143.193 9.7301H146.203C146.803 9.7301 147.227 9.8646 147.476 10.1336C147.724 10.3818 147.848 10.775 147.848 11.3129V21.7097L151.945 16.3716C152.069 16.2061 152.204 16.0923 152.348 16.0302C152.493 15.9682 152.71 15.9371 153 15.9371H157.811C158.017 15.9371 158.172 15.9992 158.276 16.1233C158.4 16.2268 158.462 16.3716 158.462 16.5578C158.462 16.7647 158.39 16.9509 158.245 17.1165L152.938 23.1994L158.4 29.6546Z" fill="#8B8B8B"/>
<path d="M168.477 31.2994C166.739 31.2994 165.188 31.0098 163.822 30.4306C162.477 29.8511 161.412 28.9821 160.626 27.8236C159.839 26.6649 159.446 25.2477 159.446 23.5718C159.446 20.9441 160.191 18.9372 161.681 17.5509C163.17 16.1647 165.312 15.4716 168.105 15.4716C170.836 15.4716 172.905 16.1543 174.312 17.5199C175.74 18.8647 176.454 20.7373 176.454 23.1372C176.454 24.1718 175.998 24.689 175.088 24.689H165.343C165.343 25.5786 165.674 26.2615 166.336 26.7372C167.019 27.2132 168.043 27.451 169.408 27.451C170.257 27.451 170.96 27.3787 171.519 27.2339C172.098 27.0683 172.678 26.8305 173.257 26.5201C173.505 26.4166 173.671 26.3649 173.753 26.3649C173.94 26.3649 174.095 26.4891 174.219 26.7372L175.274 28.7235C175.378 28.9305 175.429 29.0856 175.429 29.1891C175.429 29.3752 175.305 29.5512 175.057 29.7166C174.209 30.2753 173.247 30.6787 172.171 30.927C171.095 31.1754 169.864 31.2994 168.477 31.2994ZM170.867 21.6166C170.867 20.8303 170.64 20.2198 170.184 19.7854C169.729 19.351 169.046 19.1337 168.136 19.1337C167.226 19.1337 166.533 19.3613 166.057 19.8165C165.581 20.2511 165.343 20.851 165.343 21.6166H170.867Z" fill="#8B8B8B"/>
<path d="M187.091 31.2994C185.353 31.2994 183.708 31.1236 182.156 30.7719C180.605 30.3993 179.353 29.8821 178.401 29.2201C178.049 28.9925 177.874 28.7545 177.874 28.5063C177.874 28.3408 177.936 28.165 178.06 27.9787L179.58 25.558C179.746 25.3097 179.911 25.1856 180.077 25.1856C180.18 25.1856 180.356 25.2579 180.605 25.4027C181.37 25.8374 182.239 26.189 183.212 26.4579C184.184 26.727 185.146 26.8615 186.098 26.8615C187.07 26.8615 187.784 26.7167 188.239 26.4269C188.715 26.1372 188.953 25.6718 188.953 25.0303C188.953 24.4096 188.694 23.9234 188.177 23.5718C187.68 23.2199 186.739 22.7752 185.353 22.2373C183.263 21.451 181.629 20.5717 180.449 19.5992C179.291 18.6061 178.711 17.2612 178.711 15.5646C178.711 13.5163 179.446 11.9542 180.915 10.8783C182.384 9.80247 184.339 9.26453 186.781 9.26453C188.477 9.26453 189.925 9.41971 191.125 9.73005C192.346 10.0197 193.381 10.4749 194.229 11.0956C194.581 11.3646 194.757 11.6128 194.757 11.8404C194.757 11.9853 194.694 12.1508 194.57 12.337L193.05 14.7577C192.863 15.006 192.698 15.1302 192.553 15.1302C192.45 15.1302 192.274 15.0577 192.026 14.9129C190.825 14.1267 189.398 13.7336 187.743 13.7336C186.853 13.7336 186.17 13.8784 185.694 14.1681C185.218 14.4577 184.98 14.9336 184.98 15.5957C184.98 16.0509 185.105 16.4233 185.353 16.7129C185.601 17.0026 185.932 17.2612 186.346 17.4888C186.781 17.6957 187.443 17.9647 188.332 18.2957L188.922 18.513C190.453 19.113 191.653 19.6923 192.522 20.251C193.412 20.7888 194.084 21.4613 194.539 22.2683C194.994 23.0544 195.222 24.0475 195.222 25.2477C195.222 27.0891 194.529 28.5581 193.143 29.6545C191.777 30.7512 189.76 31.2994 187.091 31.2994Z" fill="#8B8B8B"/>
<path d="M201.816 30.834C201.506 30.834 201.269 30.7822 201.103 30.6787C200.937 30.5754 200.813 30.3684 200.73 30.058L196.727 16.6509C196.685 16.5268 196.665 16.4337 196.665 16.3716C196.665 16.082 196.871 15.9371 197.285 15.9371H201.381C201.651 15.9371 201.847 15.9889 201.972 16.0923C202.096 16.1751 202.179 16.3199 202.219 16.5268L203.895 23.5718L206.006 17.8923C206.11 17.6441 206.213 17.4785 206.316 17.3958C206.441 17.2923 206.648 17.2406 206.938 17.2406H208.892C209.182 17.2406 209.379 17.2923 209.482 17.3958C209.607 17.4785 209.719 17.6441 209.824 17.8923L211.903 23.5718L213.611 16.5268C213.671 16.3199 213.754 16.1751 213.858 16.0923C213.961 15.9889 214.148 15.9371 214.416 15.9371H218.545C218.958 15.9371 219.165 16.082 219.165 16.3716C219.165 16.4337 219.145 16.5268 219.103 16.6509L215.069 30.058C214.986 30.3684 214.861 30.5754 214.696 30.6787C214.551 30.7822 214.324 30.834 214.013 30.834H210.972C210.682 30.834 210.465 30.7822 210.32 30.6787C210.175 30.5547 210.052 30.3478 209.947 30.058L207.899 24.4407L205.851 30.058C205.768 30.3478 205.643 30.5547 205.478 30.6787C205.333 30.7822 205.117 30.834 204.827 30.834H201.816Z" fill="#8B8B8B"/>
<path d="M227.032 31.2994C225.086 31.2994 223.525 30.6787 222.345 29.4375C221.187 28.1753 220.607 26.4063 220.607 24.1303C220.607 22.3924 221 20.8716 221.787 19.5682C222.593 18.2647 223.721 17.2613 225.169 16.5578C226.639 15.8336 228.325 15.4716 230.228 15.4716C231.801 15.4716 233.187 15.6474 234.387 15.9992C235.607 16.3302 236.725 16.8164 237.738 17.4578V29.8719C237.738 30.265 237.666 30.5236 237.521 30.6477C237.376 30.7719 237.088 30.834 236.653 30.834H233.487C233.259 30.834 233.084 30.803 232.959 30.7407C232.834 30.6582 232.731 30.5339 232.649 30.3683L232.246 29.4375C231.646 30.0787 230.921 30.5444 230.073 30.834C229.245 31.1443 228.232 31.2994 227.032 31.2994ZM229.36 27.0786C230.166 27.0786 230.798 26.8821 231.253 26.4891C231.708 26.096 231.936 25.5373 231.936 24.813V19.9717C231.541 19.7854 231.046 19.6923 230.445 19.6923C229.348 19.6923 228.47 20.0751 227.807 20.8406C227.167 21.6061 226.844 22.682 226.844 24.0683C226.844 26.0752 227.684 27.0786 229.36 27.0786Z" fill="#8B8B8B"/>
<path d="M242.026 37.103C241.426 37.103 241.003 36.979 240.753 36.7306C240.526 36.4823 240.413 36.0892 240.413 35.5512V17.7682C241.344 17.1061 242.514 16.5578 243.919 16.1233C245.327 15.6888 246.796 15.4716 248.326 15.4716C254.576 15.4716 257.699 18.1199 257.699 23.4165C257.699 25.8166 257.037 27.7304 255.714 29.1581C254.388 30.5856 252.517 31.2994 250.097 31.2994C249.414 31.2994 248.751 31.2166 248.109 31.0511C247.488 30.8857 246.971 30.6582 246.558 30.3683V35.5512C246.558 36.0892 246.433 36.4823 246.185 36.7306C245.938 36.979 245.513 37.103 244.912 37.103H242.026ZM248.761 27.1096C249.651 27.1096 250.314 26.7787 250.747 26.1165C251.202 25.4338 251.43 24.5234 251.43 23.3855C251.43 22.0407 251.162 21.0992 250.624 20.5612C250.107 20.0027 249.299 19.7234 248.203 19.7234C247.498 19.7234 246.941 19.8165 246.528 20.0027V24.9373C246.528 25.6408 246.723 26.1788 247.116 26.5511C247.511 26.9235 248.058 27.1096 248.761 27.1096Z" fill="#8B8B8B"/>
<path fill-rule="evenodd" clip-rule="evenodd" d="M19.3508 40C13.4713 39.9956 8.73526 38.5847 5.42613 36.0507C2.07731 33.4862 0.300781 29.8469 0.300781 25.7288C0.300781 21.761 2.07342 18.8999 4.07915 16.9659C5.65102 15.4503 7.3856 14.4796 8.59341 13.9212C8.32027 13.083 7.97952 11.9856 7.67463 10.8522C7.26669 9.33556 6.86649 7.55611 6.86649 6.25213C6.86649 4.7087 7.20299 3.15866 8.11031 1.95422C9.06893 0.6817 10.5121 0 12.2482 0C13.6051 0 14.757 0.503312 15.6589 1.37157C16.521 2.20151 17.0947 3.30369 17.4909 4.45265C18.187 6.47157 18.458 9.00802 18.534 11.5393H20.197C20.2731 9.00802 20.544 6.47157 21.2403 4.45265C21.6364 3.30369 22.21 2.20151 23.0722 1.37157C23.9741 0.503312 25.1259 0 26.4828 0C28.2191 0 29.6621 0.6817 30.6208 1.95422C31.5281 3.15866 31.8647 4.7087 31.8647 6.25213C31.8647 7.55611 31.4643 9.33556 31.0565 10.8522C30.7515 11.9856 30.4108 13.083 30.1377 13.9212C31.3455 14.4796 33.0801 15.4503 34.6519 16.9659C36.6577 18.8999 38.4302 21.761 38.4302 25.7288C38.4302 29.8469 36.6538 33.4862 33.3049 36.0507C29.9959 38.5847 25.2597 39.9956 19.3802 40H19.3508Z" fill="#8B8B8B"/>
<path d="M12.2478 1.4679C9.70499 1.4679 8.53446 3.38432 8.53446 6.03468C8.53446 8.14133 9.89451 12.3604 10.4525 14.0028C10.5781 14.3722 10.3808 14.7769 10.0212 14.9202C7.98314 15.732 1.96875 18.7043 1.96875 25.5115C1.96875 32.682 8.08074 38.0887 19.3517 38.0974C19.3562 38.0974 19.3607 38.0972 19.3652 38.0972C19.3697 38.0972 19.3741 38.0974 19.3786 38.0974C30.6495 38.0887 36.7615 32.682 36.7615 25.5115C36.7615 18.7043 30.7472 15.732 28.7092 14.9202C28.3495 14.7769 28.1523 14.3722 28.2778 14.0028C28.8359 12.3604 30.196 8.14133 30.196 6.03468C30.196 3.38432 29.0254 1.4679 26.4825 1.4679C22.8222 1.4679 21.9097 6.70581 21.8446 12.3274C21.8404 12.7027 21.5399 13.0072 21.1685 13.0072H17.5619C17.1904 13.0072 16.8901 12.7027 16.8857 12.3274C16.8206 6.70581 15.9082 1.4679 12.2478 1.4679Z" fill="#8B8B8B"/>
<path d="M19.3786 35.8003C11.0973 35.8003 1.98307 31.3221 1.96879 25.5251C1.96877 25.534 1.96875 25.5431 1.96875 25.5521C1.96875 32.7285 8.09047 38.138 19.3786 38.138C30.6669 38.138 36.7885 32.7285 36.7885 25.5521C36.7885 25.5431 36.7885 25.534 36.7885 25.5251C36.7742 31.3221 27.6599 35.8003 19.3786 35.8003Z" fill="#8B8B8B"/>
<path d="M14.7771 23.7446C14.7771 25.7018 13.8615 26.7211 12.7321 26.7211C11.6026 26.7211 10.687 25.7018 10.687 23.7446C10.687 21.7874 11.6026 20.7681 12.7321 20.7681C13.8615 20.7681 14.7771 21.7874 14.7771 23.7446Z" fill="white"/>
<path d="M28.0701 23.7446C28.0701 25.7018 27.1545 26.7211 26.025 26.7211C24.8956 26.7211 23.98 25.7018 23.98 23.7446C23.98 21.7874 24.8956 20.7681 26.025 20.7681C27.1545 20.7681 28.0701 21.7874 28.0701 23.7446Z" fill="white"/>
</svg>
