<svg width="40" height="40" viewBox="0 0 40 40" fill="none" xmlns="http://www.w3.org/2000/svg">
<g id="pie-chart-03">
<path id="Icon" d="M20 3.33398C22.1887 3.33398 24.356 3.76508 26.3781 4.60266C28.4002 5.44024 30.2375 6.6679 31.7852 8.21554C33.3328 9.76319 34.5605 11.6005 35.398 13.6226C36.2356 15.6447 36.6667 17.812 36.6667 20.0007M20 3.33398V20.0007M20 3.33398C10.7953 3.33398 3.33337 10.7959 3.33337 20.0007C3.33337 29.2054 10.7953 36.6673 20 36.6673C29.2048 36.6673 36.6667 29.2054 36.6667 20.0007M20 3.33398C29.2048 3.33398 36.6667 10.7959 36.6667 20.0007M36.6667 20.0007L20 20.0007M36.6667 20.0007C36.6667 22.6308 36.0442 25.2237 34.8502 27.5672C33.6561 29.9107 31.9243 31.9383 29.7965 33.4843L20 20.0007" stroke="#56CCF2" stroke-width="3" stroke-linecap="round" stroke-linejoin="round"/>
</g>
</svg>
