<svg width="28" height="28" viewBox="0 0 28 28" fill="none" xmlns="http://www.w3.org/2000/svg">
<rect x="-0.00012207" width="28" height="28" rx="14" fill="#73D13D" fill-opacity="0.2"/>
<path fill-rule="evenodd" clip-rule="evenodd" d="M13.9999 8.81445C14.3578 8.81445 14.648 9.10464 14.648 9.4626V13.3515L18.5369 13.3515C18.8949 13.3515 19.1851 13.6417 19.1851 13.9996C19.1851 14.3576 18.8949 14.6478 18.5369 14.6478L14.648 14.6478L14.648 18.5367C14.648 18.8946 14.3578 19.1848 13.9999 19.1848C13.6419 19.1848 13.3517 18.8946 13.3517 18.5367L13.3517 14.6478H9.46285C9.10488 14.6478 8.8147 14.3576 8.8147 13.9996C8.8147 13.6417 9.10488 13.3515 9.46285 13.3515H13.3517V9.4626C13.3517 9.10464 13.6419 8.81445 13.9999 8.81445Z" fill="#52C41A"/>
</svg>
