<svg width="153" height="40" viewBox="0 0 153 40" fill="none" xmlns="http://www.w3.org/2000/svg">
<path d="M63.0927 34.9602C60.891 34.9602 58.6828 34.5533 56.4679 33.7393C54.2529 32.9254 52.3781 31.8513 50.8438 30.517L54.4463 25.153C55.6605 26.2071 57.0415 27.0611 58.5893 27.7149C60.1505 28.3554 61.6383 28.6756 63.0526 28.6756C64.2268 28.6756 65.2142 28.4621 66.0148 28.0351C66.8287 27.6081 67.2357 27.0411 67.2357 26.3339C67.2357 26.0804 67.1824 25.8535 67.0757 25.6534C66.9689 25.4532 66.7888 25.2664 66.5353 25.093C66.2818 24.9195 66.0282 24.7727 65.7747 24.6526C65.5212 24.5192 65.1543 24.3791 64.6739 24.2323C64.2069 24.0856 63.7999 23.9721 63.453 23.8921C63.1194 23.7987 62.6324 23.6719 61.9919 23.5118C55.3204 21.8839 51.9846 18.8083 51.9846 14.285C51.9846 11.6831 53.0053 9.60159 55.0468 8.04044C57.0883 6.46595 59.7837 5.67871 63.1328 5.67871C65.2277 5.67871 67.1623 5.99894 68.9369 6.63941C70.7249 7.27988 72.1793 8.1205 73.3002 9.16127L70.0578 14.5452C69.2038 13.7713 68.1431 13.1509 66.8755 12.6838C65.6079 12.2035 64.3336 11.9633 63.0526 11.9633C61.9318 11.9633 61.0178 12.1568 60.3106 12.5437C59.6034 12.9307 59.2499 13.4311 59.2499 14.0448C59.2499 14.6987 59.6636 15.2391 60.4908 15.666C61.3315 16.093 62.4855 16.48 63.9534 16.8269C64.4471 16.9336 64.9006 17.0471 65.3143 17.1671C65.7413 17.2739 66.3285 17.4607 67.0757 17.7276C67.8362 17.9811 68.5166 18.2613 69.1171 18.5682C69.7309 18.8751 70.3848 19.2754 71.0786 19.7691C71.7725 20.2628 72.3462 20.7965 72.7999 21.3702C73.2669 21.944 73.6538 22.6378 73.9606 23.4518C74.2809 24.2657 74.4411 25.133 74.4411 26.0537C74.4411 27.7883 73.9407 29.3428 72.94 30.7171C71.9393 32.0781 70.5783 33.1255 68.857 33.8594C67.1357 34.5933 65.2142 34.9602 63.0927 34.9602Z" fill="#8B8B8B"/>
<path d="M94.1955 32.5384C92.3675 34.153 89.9457 34.9602 86.9302 34.9602C83.9146 34.9602 81.4928 34.153 79.6648 32.5384C77.8368 30.9106 76.9229 28.7623 76.9229 26.0937V13.5645H83.5677V25.153C83.5677 26.1671 83.8747 26.981 84.4885 27.5948C85.1156 28.2086 85.9294 28.5155 86.9302 28.5155C87.9309 28.5155 88.7382 28.2086 89.352 27.5948C89.9791 26.981 90.2927 26.1671 90.2927 25.153V13.5645H96.9375V26.0937C96.9375 28.7623 96.0236 30.9106 94.1955 32.5384Z" fill="#8B8B8B"/>
<path d="M108.446 34.9606C105.097 34.9606 102.068 33.9199 99.3594 31.8383L102.302 27.6553C104.236 29.1097 106.218 29.8369 108.246 29.8369C109.127 29.8369 109.834 29.7168 110.368 29.4766C110.901 29.2231 111.168 28.8761 111.168 28.4358C111.168 27.9822 110.888 27.6352 110.327 27.3951C109.78 27.1549 108.926 26.9147 107.766 26.6745C107.152 26.5411 106.658 26.4344 106.285 26.3543C105.924 26.2609 105.437 26.1141 104.823 25.914C104.21 25.7138 103.709 25.5137 103.322 25.3135C102.949 25.1 102.522 24.8198 102.041 24.4729C101.574 24.126 101.207 23.7524 100.941 23.3521C100.687 22.9385 100.467 22.4448 100.28 21.871C100.093 21.2839 99.9999 20.6434 99.9999 19.9496C99.9999 18.4552 100.407 17.1809 101.221 16.1268C102.035 15.0727 103.102 14.2988 104.423 13.8051C105.744 13.3114 107.239 13.0645 108.906 13.0645C111.989 13.0645 114.817 13.9652 117.393 15.7665L114.43 19.9496C112.549 18.7754 110.788 18.1883 109.147 18.1883C108.399 18.1883 107.786 18.2884 107.305 18.4885C106.838 18.6887 106.605 18.9956 106.605 19.4092C106.605 19.8495 106.872 20.1898 107.405 20.4299C107.939 20.6568 108.793 20.8903 109.967 21.1305C110.541 21.2372 111.028 21.3373 111.428 21.4307C111.829 21.5241 112.322 21.6642 112.909 21.851C113.496 22.0378 113.99 22.2379 114.39 22.4514C114.804 22.6649 115.238 22.9451 115.691 23.292C116.145 23.6256 116.512 23.9992 116.792 24.4129C117.072 24.8265 117.299 25.3269 117.473 25.914C117.66 26.4877 117.753 27.1215 117.753 27.8154C117.753 30.0704 116.879 31.825 115.131 33.0792C113.396 34.3335 111.168 34.9606 108.446 34.9606Z" fill="#8B8B8B"/>
<path d="M133.344 13.0644C135.706 13.0644 137.608 13.7783 139.049 15.206C140.503 16.6337 141.23 18.5284 141.23 20.8902V34.4602H134.585V23.1118C134.585 22.0177 134.272 21.1437 133.645 20.4899C133.017 19.8227 132.184 19.4891 131.143 19.4891C129.995 19.4891 129.068 19.8294 128.361 20.5099C127.667 21.1904 127.32 22.0844 127.32 23.1919V34.4602H120.695V4.93848H127.32V15.5262C128.921 13.885 130.929 13.0644 133.344 13.0644Z" fill="#8B8B8B"/>
<path d="M148.576 11.3027C147.428 11.3027 146.467 10.9225 145.693 10.1619C144.92 9.388 144.533 8.42729 144.533 7.27978C144.533 6.10559 144.92 5.13821 145.693 4.37765C146.467 3.60375 147.428 3.2168 148.576 3.2168C149.75 3.2168 150.717 3.60375 151.478 4.37765C152.252 5.13821 152.639 6.10559 152.639 7.27978C152.639 8.42729 152.252 9.388 151.478 10.1619C150.717 10.9225 149.75 11.3027 148.576 11.3027ZM145.273 34.4598V13.5644H151.898V34.4598H145.273Z" fill="#8B8B8B"/>
<path fill-rule="evenodd" clip-rule="evenodd" d="M33.2574 16.9385C33.7273 17.9825 33.8499 18.9042 33.3801 19.539C32.9305 20.1731 32.011 20.358 30.8867 20.2554C28.8625 20.0914 26.2053 18.9859 23.6297 17.1432C21.0542 15.2998 19.1533 13.1295 18.3559 11.2658C17.9063 10.2218 17.7836 9.3001 18.2332 8.66536C18.6834 8.03061 19.6029 7.84628 20.7475 7.92859C22.7502 8.11293 25.4288 9.19808 27.9835 11.0415C30.5591 12.8843 32.46 15.0749 33.2574 16.9385Z" fill="#8B8B8B"/>
<path fill-rule="evenodd" clip-rule="evenodd" d="M42.6154 19.8713C42.5037 19.5473 42.3752 19.218 42.2306 18.8847C40.5548 14.9939 36.6095 10.3866 31.2333 6.51672C25.8373 2.66651 20.2365 0.393614 16.0054 0.0452283C12.9391 -0.200554 10.5684 0.557082 9.34162 2.27698L0.899624 14.0722C-0.326544 15.7921 -0.286038 18.2899 0.94013 21.1159C2.06156 23.6867 4.15513 26.57 7.00386 29.3415C8.54886 30.8388 10.205 32.2173 11.9577 33.4636C17.3334 37.3335 22.955 39.5861 27.1861 39.9548C30.2316 40.2006 32.6232 39.4429 33.8499 37.723L42.2717 25.9278C43.3532 24.4108 43.4492 22.2891 42.616 19.8707L42.6154 19.8713ZM41.1063 25.0681L41.0449 25.1701C40.0438 26.4605 38.1424 26.89 35.73 26.7063C31.7037 26.3788 26.3685 24.187 21.2382 20.5014C16.1072 16.8158 12.3257 12.4543 10.7107 8.72761C9.75015 6.51614 9.54531 4.57075 10.4654 3.19866L10.507 3.11692C11.4878 1.74542 13.4298 1.29443 15.8827 1.49906C19.9096 1.82657 25.2442 4.01774 30.3751 7.70332C35.5257 11.3889 39.3078 15.751 40.9228 19.4574C41.8834 21.71 42.0877 23.7163 41.1063 25.0681Z" fill="#8B8B8B"/>
</svg>
