<svg width="256" height="40" viewBox="0 0 256 40" fill="none" xmlns="http://www.w3.org/2000/svg">
<path d="M53.2002 3.95801V7.56635H63.4005V35.981H67.7486V7.56635H77.9531V3.95801H53.2002Z" fill="#8B8B8B"/>
<path d="M85.7084 35.9845V24.2101C85.7084 19.1141 87.9482 16.1797 91.8853 16.1797C95.1813 16.1797 96.8704 18.251 96.8704 22.2251V35.9804H100.762V21.9539C100.762 15.9948 98.1526 12.8878 93.2127 12.8878C89.6455 12.8878 87.081 14.5112 85.7084 17.6675V3.2793H81.8206V35.9845H85.7084Z" fill="#8B8B8B"/>
<path d="M112.142 36.5235C115.898 36.5235 118.775 34.7646 119.827 31.8795C119.872 33.322 120.008 34.8098 120.193 35.9893H124.266C123.715 34.2303 123.489 31.8343 123.489 28.3657V22.2751C123.489 15.6872 120.744 12.8926 114.476 12.8926C109.121 12.8926 105.464 15.9132 105.147 20.5161H109.31C109.491 17.6763 111.415 16.0489 114.53 16.0489C118.056 16.0489 119.56 17.7174 119.56 21.8682V22.2299L115.306 22.7313C111.55 23.1833 109.356 23.7217 107.621 24.5807C105.562 25.7108 104.42 27.6465 104.42 29.9069C104.42 33.9221 107.486 36.5359 112.154 36.5359H112.146L112.138 36.5276L112.142 36.5235ZM113.009 33.3673C110.219 33.3673 108.53 32.0152 108.53 29.8041C108.53 27.5931 109.997 26.4177 113.379 25.9286L119.601 25.0245V26.1547C119.601 30.5315 116.991 33.3714 113.013 33.3714L113.009 33.3673Z" fill="#8B8B8B"/>
<path d="M128.388 3.2793V35.9845H132.28V3.2793H128.388Z" fill="#8B8B8B"/>
<path d="M143.684 36.5235C147.441 36.5235 150.317 34.7646 151.369 31.8795C151.415 33.322 151.55 34.8098 151.731 35.9893H155.804C155.253 34.2303 155.027 31.8343 155.027 28.3657V22.2751C155.027 15.6872 152.282 12.8926 146.015 12.8926C140.66 12.8926 137.002 15.9132 136.685 20.5161H140.849C141.029 17.6763 142.953 16.0489 146.06 16.0489C149.586 16.0489 151.09 17.7174 151.09 21.8682V22.2299L146.836 22.7313C143.08 23.1833 140.886 23.7217 139.147 24.5807C137.088 25.7108 135.946 27.6465 135.946 29.9069C135.946 33.9221 139.012 36.5359 143.68 36.5359V36.5276L143.684 36.5235ZM144.551 33.3673C141.761 33.3673 140.072 32.0152 140.072 29.8041C140.072 27.5931 141.539 26.4177 144.921 25.9286L151.143 25.0245V26.1547C151.143 30.5315 148.534 33.3714 144.556 33.3714L144.551 33.3673Z" fill="#8B8B8B"/>
<path d="M186.475 35.9851V32.3768H171.47V3.95801H167.126V35.9851H186.475Z" fill="#8B8B8B"/>
<path d="M196.958 36.5235C200.715 36.5235 203.592 34.7646 204.648 31.8795C204.693 33.322 204.829 34.8098 205.009 35.9893H209.082C208.531 34.2303 208.305 31.8343 208.305 28.3657V22.2751C208.305 15.6872 205.56 12.8926 199.293 12.8926C193.938 12.8926 190.28 15.9132 189.964 20.5161H194.127C194.308 17.6763 196.231 16.0489 199.338 16.0489C202.864 16.0489 204.368 17.7174 204.368 21.8682V22.2299L200.115 22.7313C196.358 23.1833 194.168 23.7217 192.43 24.5807C190.371 25.7108 189.228 27.6465 189.228 29.9069C189.228 33.9221 192.294 36.5359 196.963 36.5359H196.958V36.5276V36.5235ZM197.826 33.3673C195.035 33.3673 193.346 32.0152 193.346 29.8041C193.346 27.5931 194.813 26.4177 198.195 25.9286L204.418 25.0245V26.1547C204.418 30.5315 201.808 33.3714 197.83 33.3714L197.826 33.3673Z" fill="#8B8B8B"/>
<path d="M224.144 36.5229C229.865 36.5229 233.568 31.7433 233.568 24.7033C233.568 17.6633 229.951 12.8837 224.37 12.8837C220.803 12.8837 218.284 14.8235 217.1 17.351V3.2793H213.213V35.9845H216.184L216.87 32.1091C218.058 34.7269 220.668 36.5311 224.14 36.5311L224.144 36.5229ZM223.096 33.1324C219.254 33.1324 217.014 30.0665 217.014 25.3691V24.1978C217.014 19.2826 219.303 16.2578 223.146 16.2578C227.219 16.2578 229.458 19.6442 229.458 24.691C229.458 29.7377 227.079 33.1242 223.101 33.1242V33.1324H223.096Z" fill="#8B8B8B"/>
<path d="M246.358 36.523C251.943 36.523 255.095 33.6831 255.095 29.6227C255.095 26.3308 253.266 24.2513 249.148 23.4869L244.71 22.6732C242.47 22.2704 241.184 21.3704 241.184 19.4676C241.184 17.2607 242.967 15.9949 245.893 15.9949C249 15.9949 250.788 17.5771 251.294 19.8292L255.136 18.9744C254.68 15.1852 251.199 12.8838 246.078 12.8838C240.678 12.8838 237.386 15.7688 237.386 19.6484C237.386 23.0759 239.581 25.2418 243.473 25.961L247.952 26.7747C250.011 27.1363 251.252 27.9459 251.252 29.9309C251.252 31.9159 249.559 33.3585 246.497 33.3585C243.156 33.3585 241.011 31.7351 240.456 28.8912L236.519 29.5693C237.296 34.0366 240.958 36.5188 246.358 36.5188V36.5271H246.354L246.358 36.523Z" fill="#8B8B8B"/>
<path d="M18.4402 40.0004H24.054V29.2L34.4928 35.1714L37.0983 30.696L23.2444 22.7683C22.0115 22.0655 20.4827 22.0655 19.2539 22.7683L5.39587 30.696L8.00144 35.1714L18.4402 29.2V40.0004Z" fill="#8B8B8B"/>
<path d="M23.2444 0V15.9211C23.2444 17.3307 24.0088 18.6417 25.2376 19.3445L39.0915 27.2722L41.6971 22.7967L31.283 16.8417L40.5834 11.4374L37.7764 6.62078L28.4514 12.0374V0H23.2403H23.2444Z" fill="#8B8B8B"/>
<path d="M14.0386 0V12.0374L4.71365 6.62078L1.90671 11.4374L11.207 16.8417L0.792969 22.7967L3.39854 27.2722L17.2524 19.3445C18.4812 18.6417 19.2457 17.3307 19.2457 15.9211V0H14.0345H14.0386Z" fill="#8B8B8B"/>
</svg>
