<svg width="375" height="375" viewBox="0 0 375 375" fill="none" xmlns="http://www.w3.org/2000/svg">
<g clip-path="url(#clip0_1064_5426)">
<rect width="374.999" height="374.999" rx="187.5" fill="white"/>
<g clip-path="url(#clip1_1064_5426)">
<rect width="845.798" height="587.995" fill="white"/>
<g opacity="0.9" filter="url(#filter0_f_1064_5426)">
<circle cx="33.6543" cy="17.5679" r="310.93" fill="#FFF6DB"/>
</g>
<g opacity="0.9" filter="url(#filter1_f_1064_5426)">
<circle cx="782.088" cy="407.024" r="310.93" fill="#FFF6DB"/>
</g>
</g>
<g clip-path="url(#clip2_1064_5426)">
<rect width="678.324" height="381.557" transform="translate(-151.738 -3.26709)" fill="white"/>
<g filter="url(#filter2_f_1064_5426)">
<path fill-rule="evenodd" clip-rule="evenodd" d="M-41.9242 36.7751C67.1854 33.2103 176.848 89.1323 239.378 178.612C301.915 268.103 305.815 386.557 275.872 491.542C248.679 586.886 172.47 655.082 88.4626 707.748C9.49349 757.255 -79.5734 779.066 -172.562 772.674C-279.373 765.332 -395.376 752.045 -463.887 669.78C-536.232 582.91 -567.949 453.961 -525.109 349.35C-485.92 253.657 -356.379 251.409 -269.552 195.24C-188.855 143.037 -137.986 39.9137 -41.9242 36.7751Z" fill="#C2E7FC"/>
</g>
<g filter="url(#filter3_f_1064_5426)">
<path fill-rule="evenodd" clip-rule="evenodd" d="M257.191 472.725C338.603 483.44 427.629 437.76 491.886 479.648C558.155 522.849 551.193 596.995 538.452 656.077C526.078 713.453 493.888 770.94 423.812 795.309C358.454 818.036 275.318 797.913 203.996 772.38C148.374 752.467 126.56 707.073 83.7535 673.568C25.9428 628.319 -80.318 603.599 -86.2864 545.173C-92.3669 485.65 -17.527 438.513 58.1123 422.559C123.594 408.747 186.554 463.428 257.191 472.725Z" fill="#6A4DEE"/>
</g>
<g opacity="0.7">
<g filter="url(#filter4_f_1064_5426)">
<path fill-rule="evenodd" clip-rule="evenodd" d="M147.577 -193.636C184.033 -268.07 260.544 -321.736 342.758 -331.869C424.983 -342.003 505.738 -302.523 565.42 -245.134C619.621 -193.016 638.182 -117.675 643.562 -42.6241C648.618 27.9257 631.523 95.4045 594.135 155.491C551.189 224.508 500.988 297.577 421.477 314.285C337.517 331.928 239.827 307.372 184.988 241.467C134.823 181.18 179.435 93.5117 172.712 15.3247C166.465 -57.3415 115.48 -128.101 147.577 -193.636Z" fill="#FFB379"/>
</g>
<g filter="url(#filter5_f_1064_5426)">
<path fill-rule="evenodd" clip-rule="evenodd" d="M547.145 -239.294C583.308 -290.081 584.396 -366.014 635.339 -394.218C687.877 -423.305 735.078 -392.287 770.128 -362.747C804.166 -334.059 831.223 -292.043 822.602 -236.39C814.562 -184.485 771.481 -135.886 728.981 -97.1315C695.837 -66.9082 657.656 -68.4118 619.968 -51.6131C569.068 -28.9261 514.675 33.547 473.403 16.7858C431.357 -0.289716 426.419 -67.2281 442.658 -123.621C456.716 -172.441 515.768 -195.229 547.145 -239.294Z" fill="#FFB379"/>
</g>
</g>
</g>
<path d="M275.523 100.999L214.14 274.166H161.384L100 100.999H144.867L187.762 231.738L230.903 100.999H275.523Z" fill="url(#paint0_linear_1064_5426)"/>
</g>
<defs>
<filter id="filter0_f_1064_5426" x="-488.937" y="-505.023" width="1045.18" height="1045.18" filterUnits="userSpaceOnUse" color-interpolation-filters="sRGB">
<feFlood flood-opacity="0" result="BackgroundImageFix"/>
<feBlend mode="normal" in="SourceGraphic" in2="BackgroundImageFix" result="shape"/>
<feGaussianBlur stdDeviation="105.831" result="effect1_foregroundBlur_1064_5426"/>
</filter>
<filter id="filter1_f_1064_5426" x="259.497" y="-115.567" width="1045.18" height="1045.18" filterUnits="userSpaceOnUse" color-interpolation-filters="sRGB">
<feFlood flood-opacity="0" result="BackgroundImageFix"/>
<feBlend mode="normal" in="SourceGraphic" in2="BackgroundImageFix" result="shape"/>
<feGaussianBlur stdDeviation="105.831" result="effect1_foregroundBlur_1064_5426"/>
</filter>
<filter id="filter2_f_1064_5426" x="-779.519" y="-198.438" width="1308.56" height="1207.25" filterUnits="userSpaceOnUse" color-interpolation-filters="sRGB">
<feFlood flood-opacity="0" result="BackgroundImageFix"/>
<feBlend mode="normal" in="SourceGraphic" in2="BackgroundImageFix" result="shape"/>
<feGaussianBlur stdDeviation="117.526" result="effect1_foregroundBlur_1064_5426"/>
</filter>
<filter id="filter3_f_1064_5426" x="-274.675" y="232.294" width="1009.54" height="760.956" filterUnits="userSpaceOnUse" color-interpolation-filters="sRGB">
<feFlood flood-opacity="0" result="BackgroundImageFix"/>
<feBlend mode="normal" in="SourceGraphic" in2="BackgroundImageFix" result="shape"/>
<feGaussianBlur stdDeviation="94.0208" result="effect1_foregroundBlur_1064_5426"/>
</filter>
<filter id="filter4_f_1064_5426" x="-97.9979" y="-568.509" width="977.48" height="1123.39" filterUnits="userSpaceOnUse" color-interpolation-filters="sRGB">
<feFlood flood-opacity="0" result="BackgroundImageFix"/>
<feBlend mode="normal" in="SourceGraphic" in2="BackgroundImageFix" result="shape"/>
<feGaussianBlur stdDeviation="117.526" result="effect1_foregroundBlur_1064_5426"/>
</filter>
<filter id="filter5_f_1064_5426" x="246.023" y="-593.909" width="766.238" height="801.557" filterUnits="userSpaceOnUse" color-interpolation-filters="sRGB">
<feFlood flood-opacity="0" result="BackgroundImageFix"/>
<feBlend mode="normal" in="SourceGraphic" in2="BackgroundImageFix" result="shape"/>
<feGaussianBlur stdDeviation="94.0208" result="effect1_foregroundBlur_1064_5426"/>
</filter>
<linearGradient id="paint0_linear_1064_5426" x1="106.568" y1="265.819" x2="336.1" y2="215.926" gradientUnits="userSpaceOnUse">
<stop stop-color="#564EFF"/>
<stop offset="0.501687" stop-color="#75C8E1"/>
<stop offset="1" stop-color="#27B4C8"/>
</linearGradient>
<clipPath id="clip0_1064_5426">
<rect width="374.999" height="374.999" rx="187.5" fill="white"/>
</clipPath>
<clipPath id="clip1_1064_5426">
<rect width="845.798" height="587.995" fill="white"/>
</clipPath>
<clipPath id="clip2_1064_5426">
<rect width="678.324" height="381.557" fill="white" transform="translate(-151.738 -3.26709)"/>
</clipPath>
</defs>
</svg>
