<svg width="16" height="16" viewBox="0 0 16 16" fill="none" xmlns="http://www.w3.org/2000/svg">
<path d="M12.667 5.33268L10.0003 7.99935L12.0003 7.99935C12.0003 10.206 10.207 11.9993 8.00033 11.9993C7.32699 11.9993 6.68699 11.8327 6.13366 11.5327L5.16033 12.506C5.98033 13.026 6.95366 13.3327 8.00033 13.3327C10.947 13.3327 13.3337 10.946 13.3337 7.99935H15.3337L12.667 5.33268ZM4.00033 7.99935C4.00033 5.79268 5.79366 3.99935 8.00033 3.99935C8.67366 3.99935 9.31366 4.16602 9.86699 4.46602L10.8403 3.49268C10.0203 2.97268 9.04699 2.66602 8.00033 2.66602C5.05366 2.66602 2.66699 5.05268 2.66699 7.99935H0.666992L3.33366 10.666L6.00033 7.99935L4.00033 7.99935Z" fill="#646464"/>
</svg>
