<svg width="25" height="24" viewBox="0 0 25 24" fill="none" xmlns="http://www.w3.org/2000/svg">
<path d="M12.2855 9.00023V13.0002M12.2855 17.0002H12.2955M10.9008 3.89195L2.67595 18.0986C2.21975 18.8866 1.99165 19.2806 2.02536 19.6039C2.05477 19.886 2.20254 20.1423 2.43189 20.309C2.69485 20.5002 3.15011 20.5002 4.06064 20.5002H20.5104C21.4209 20.5002 21.8762 20.5002 22.1391 20.309C22.3685 20.1423 22.5163 19.886 22.5457 19.6039C22.5794 19.2806 22.3513 18.8866 21.8951 18.0986L13.6702 3.89195C13.2156 3.10679 12.9883 2.71421 12.6918 2.58235C12.4332 2.46734 12.1379 2.46734 11.8792 2.58235C11.5827 2.71421 11.3554 3.10679 10.9008 3.89195Z" stroke="#F79009" stroke-width="2" stroke-linecap="round" stroke-linejoin="round"/>
</svg>
