<svg width="24" height="24" viewBox="0 0 24 24" fill="none" xmlns="http://www.w3.org/2000/svg">
<rect x="0.5" y="0.5" width="23" height="23" rx="11.5" fill="white"/>
<rect x="0.5" y="0.5" width="23" height="23" rx="11.5" stroke="#98A2B3"/>
<path fill-rule="evenodd" clip-rule="evenodd" d="M17.1334 11.5346C16.8667 11.268 16.4667 11.268 16.2001 11.5346L12.6667 15.068V7.33464C12.6667 6.93464 12.4001 6.66797 12.0001 6.66797C11.6001 6.66797 11.3334 6.93464 11.3334 7.33464V15.068L7.80008 11.5346C7.53341 11.268 7.13341 11.268 6.86675 11.5346C6.60008 11.8013 6.60008 12.2013 6.86675 12.468L11.5334 17.1346C11.6001 17.2013 11.6667 17.268 11.7334 17.268C11.8001 17.268 11.8667 17.3346 12.0001 17.3346C12.0667 17.3346 12.2001 17.3346 12.2667 17.268C12.3334 17.2013 12.4001 17.2013 12.4667 17.1346L17.1334 12.468C17.4001 12.2013 17.4001 11.8013 17.1334 11.5346Z" fill="#98A2B3"/>
</svg>
