<svg width="14" height="20" viewBox="0 0 14 20" fill="none" xmlns="http://www.w3.org/2000/svg">
<path d="M4.2409 12.8301H1.47369C1.13733 12.8301 0.890496 12.6837 0.733191 12.3908C0.575885 12.0979 0.59717 11.812 0.797045 11.533L8.28621 0.730405C8.41302 0.554072 8.57153 0.43617 8.76175 0.376697C8.95198 0.317211 9.14219 0.326114 9.3324 0.403405C9.52262 0.47285 9.6742 0.597704 9.78713 0.777968C9.90005 0.958218 9.94262 1.1504 9.91484 1.35451L9.0788 7.9922H12.5453C12.8955 7.9922 13.1439 8.1495 13.2903 8.46411C13.4367 8.77874 13.4031 9.07162 13.1893 9.34276L5.00086 19.1906C4.87405 19.3531 4.71207 19.4571 4.5149 19.5027C4.31773 19.5483 4.12706 19.5285 3.94288 19.4433C3.76656 19.366 3.62933 19.2412 3.53119 19.0688C3.43307 18.8964 3.39789 18.7042 3.42567 18.4922L4.2409 12.8301Z" fill="#FF9901"/>
</svg>
