<svg width="131" height="24" viewBox="0 0 131 24" fill="current" xmlns="http://www.w3.org/2000/svg">
<path fill-rule="evenodd" clip-rule="evenodd" d="M22.3975 5.48828C21.5075 5.48828 20.7758 5.23117 20.2022 4.71696C19.6484 4.18296 19.3715 3.5303 19.3715 2.75898C19.3715 1.96787 19.6484 1.31521 20.2022 0.800993C20.7758 0.266998 21.5075 0 22.3975 0C23.2677 0 23.9797 0.266998 24.5335 0.800993C25.107 1.31521 25.3938 1.96787 25.3938 2.75898C25.3938 3.5303 25.107 4.18296 24.5335 4.71696C23.9797 5.23117 23.2677 5.48828 22.3975 5.48828ZM24.9192 7.20893V23.7628H19.8462V7.20893H24.9192ZM35.4188 7.68345C34.5288 8.15812 33.8465 8.78111 33.3719 9.55244V0.122315H28.2989V23.7626H33.3719V21.4487C33.8663 22.22 34.5486 22.843 35.4188 23.3176C36.289 23.7725 37.3076 24 38.4745 24C39.8391 24 41.0752 23.6539 42.1828 22.9616C43.2903 22.2497 44.1605 21.2509 44.7934 19.9653C45.4461 18.66 45.7724 17.1569 45.7724 15.4561C45.7724 13.7552 45.4461 12.262 44.7934 10.9764C44.1605 9.69088 43.2903 8.702 42.1828 8.00978C41.0752 7.31757 39.8391 6.97146 38.4745 6.97146C37.3274 6.97146 36.3088 7.20879 35.4188 7.68345ZM39.5425 12.4894C40.2545 13.2014 40.6105 14.1903 40.6105 15.4561C40.6105 16.7218 40.2545 17.7305 39.5425 18.482C38.8305 19.2138 37.9701 19.5797 36.9615 19.5797C35.9528 19.5797 35.0925 19.2138 34.3805 18.482C33.6883 17.7503 33.3422 16.7515 33.3422 15.4857C33.3422 14.2199 33.6883 13.2212 34.3805 12.4894C35.0925 11.7576 35.9528 11.3918 36.9615 11.3918C37.9899 11.3918 38.8502 11.7576 39.5425 12.4894ZM60.4704 10.9765C59.8375 12.262 59.521 13.7552 59.521 15.4561C59.521 17.157 59.8375 18.66 60.4704 19.9654C61.123 21.2509 62.0031 22.2497 63.1107 22.9617C64.2182 23.6539 65.4444 24 66.7893 24C67.9562 24 68.9747 23.7627 69.8449 23.288C70.7349 22.8133 71.4271 22.1904 71.9216 21.419V23.7627H76.9945V7.20882H71.9216V9.55247C71.4469 8.78114 70.7646 8.15815 69.8746 7.68348C69.0044 7.20882 67.9858 6.97149 66.819 6.97149C65.4543 6.97149 64.2182 7.3176 63.1107 8.00981C62.0031 8.70203 61.123 9.69091 60.4704 10.9765ZM70.8536 12.4894C71.5656 13.2212 71.9216 14.22 71.9216 15.4857C71.9216 16.7515 71.5656 17.7503 70.8536 18.4821C70.1614 19.2138 69.3109 19.5797 68.3023 19.5797C67.2936 19.5797 66.4333 19.2138 65.7213 18.4821C65.0291 17.7305 64.683 16.7218 64.683 15.4561C64.683 14.1903 65.0291 13.2014 65.7213 12.4894C66.4333 11.7577 67.2936 11.3918 68.3023 11.3918C69.3109 11.3918 70.1614 11.7577 70.8536 12.4894ZM95.0825 8.92957C93.9354 7.66381 92.3928 7.03093 90.4546 7.03093C89.3668 7.03093 88.3878 7.24848 87.5176 7.68359C86.6474 8.09892 85.9552 8.67247 85.4409 9.40424V7.20892H80.368V23.7628H85.4409V14.7739C85.4409 13.6663 85.7277 12.806 86.3013 12.1929C86.8748 11.5798 87.6461 11.2732 88.6152 11.2732C89.5843 11.2732 90.3557 11.5798 90.9292 12.1929C91.5028 12.806 91.7895 13.6663 91.7895 14.7739V23.7628H96.8328V14.0915C96.8328 11.8962 96.2494 10.1756 95.0825 8.92957ZM53.2101 9.9679C53.8034 9.05813 54.5451 8.34614 55.4351 7.83192C56.3251 7.29792 57.3139 7.03093 58.4017 7.03093V12.4005H57.0074C55.7416 12.4005 54.7923 12.6774 54.1594 13.2312C53.5265 13.7652 53.2101 14.7145 53.2101 16.0792V23.7628H48.1371V7.20892H53.2101V9.9679ZM12.6082 7.20894L9.01858 19.0162L5.42895 7.20894H0L5.87395 23.7628H12.1336L18.0075 7.20894H12.6082ZM107.478 19.4611H113.073L117.391 11.7405L110.518 0.122315H116.465L120.679 7.26158L124.384 0.122315H130.181L123.517 12.0435L130.45 23.7627H124.504L120.23 16.5224L116.465 23.7627H112.372H110.668H106.706C104.867 23.7627 103.433 23.3177 102.405 22.4277C101.376 21.518 100.862 20.0445 100.862 18.0074V11.4215H98.8448V7.20887H100.862V3.17425H105.935V7.20887H109.258V11.4215H105.935V18.0668C105.935 18.5612 106.054 18.9172 106.291 19.1348C106.528 19.3523 106.924 19.4611 107.478 19.4611Z" fill="current"/>
</svg>
