<svg width="18" height="18" viewBox="0 0 18 18" fill="none" xmlns="http://www.w3.org/2000/svg">
<path d="M17.3334 9.0013C17.3334 13.6037 13.6025 17.3346 9.00008 17.3346C4.39771 17.3346 0.666748 13.6037 0.666748 9.0013C0.666748 4.39893 4.39771 0.667969 9.00008 0.667969C13.6025 0.667969 17.3334 4.39893 17.3334 9.0013Z" fill="#12232C"/>
<path d="M3.20072 12.7057C3.12767 12.7886 3.18022 12.9288 3.28432 12.9288H7.4519C7.50217 12.9288 7.55037 12.9062 7.58563 12.8662L10.307 9.77973V4.96595C10.307 4.84871 10.1798 4.79046 10.1061 4.874L3.20072 12.7057ZM10.307 9.77973V12.7977C10.307 12.8701 10.3596 12.9288 10.4243 12.9288H14.7161C14.7809 12.9288 14.8334 12.8701 14.8334 12.7977V4.96595C14.8334 4.84871 14.7061 4.79046 14.6325 4.874L10.307 9.77973Z" fill="url(#paint0_linear_2003_11063)"/>
<defs>
<linearGradient id="paint0_linear_2003_11063" x1="3.54502" y1="10.8204" x2="12.7335" y2="10.9228" gradientUnits="userSpaceOnUse">
<stop stop-color="#15F50E"/>
<stop offset="1" stop-color="#09EF91"/>
</linearGradient>
</defs>
</svg>
