<svg width="25" height="24" viewBox="0 0 25 24" fill="none" xmlns="http://www.w3.org/2000/svg">
<g id="stars-01">
<g id="Icon">
<path d="M6.95044 13L7.7349 14.5689C8.00039 15.0999 8.13313 15.3654 8.31047 15.5954C8.46783 15.7996 8.65085 15.9826 8.85499 16.14C9.08505 16.3173 9.35054 16.4501 9.88152 16.7155L11.4504 17.5L9.88152 18.2845C9.35054 18.5499 9.08506 18.6827 8.85499 18.86C8.65085 19.0174 8.46783 19.2004 8.31047 19.4046C8.13313 19.6346 8.00039 19.9001 7.7349 20.4311L6.95044 22L6.16598 20.4311C5.90049 19.9001 5.76775 19.6346 5.59041 19.4046C5.43305 19.2004 5.25003 19.0174 5.04589 18.86C4.81582 18.6827 4.55033 18.5499 4.01936 18.2845L2.45044 17.5L4.01936 16.7155C4.55033 16.4501 4.81582 16.3173 5.04589 16.14C5.25003 15.9826 5.43305 15.7996 5.59041 15.5954C5.76775 15.3654 5.90049 15.0999 6.16598 14.5689L6.95044 13Z" fill="#F2994A"/>
<path d="M15.4504 2L16.6291 5.06442C16.9111 5.79765 17.0521 6.16426 17.2714 6.47264C17.4657 6.74595 17.7045 6.98475 17.9778 7.17909C18.2862 7.39836 18.6528 7.53937 19.386 7.82138L22.4504 9L19.386 10.1786C18.6528 10.4606 18.2862 10.6016 17.9778 10.8209C17.7045 11.0153 17.4657 11.254 17.2714 11.5274C17.0521 11.8357 16.9111 12.2024 16.6291 12.9356L15.4504 16L14.2718 12.9356C13.9898 12.2024 13.8488 11.8357 13.6295 11.5274C13.4352 11.254 13.1964 11.0153 12.9231 10.8209C12.6147 10.6016 12.2481 10.4606 11.5149 10.1786L8.45044 9L11.5149 7.82138C12.2481 7.53937 12.6147 7.39836 12.9231 7.17909C13.1964 6.98475 13.4352 6.74595 13.6295 6.47264C13.8488 6.16426 13.9898 5.79765 14.2718 5.06442L15.4504 2Z" fill="#F2994A"/>
</g>
</g>
</svg>
