<svg width="179" height="66" viewBox="0 0 179 66" fill="none" xmlns="http://www.w3.org/2000/svg">
<g clip-path="url(#clip0_243_1159)">
<g clip-path="url(#clip1_243_1159)">
<g clip-path="url(#clip2_243_1159)">
<path d="M0.470215 53.5108L1.53087 37.7202L2.59152 0.00183105L3.65218 1.83256L4.71283 3.30028L5.77349 5.66914L6.83414 8.21566L7.8948 10.0097L8.95545 11.9428L10.0161 15.5096L11.0768 19.496L12.1374 28.6908L13.1981 33.4565L14.2587 37.4996L15.3194 40.2894L16.38 40.9108L17.4407 41.983L18.5013 44.142L19.562 45.0847L20.6227 49.0463L21.6833 54.0933L22.744 61.7901L23.8046 64.5343L24.8653 65.758L25.9259 65.9086L26.9866 65.9473L28.0472 65.9981L29.1079 65.9163L30.1686 65.9342L31.2292 65.7625L32.2899 65.7465L33.3505 65.7012L34.4112 65.6792L35.4718 65.8057L36.5325 65.9363L37.5931 65.6638L38.6538 65.5296L39.7144 65.5812L40.7751 65.4166L41.8358 65.3149L42.8964 65.6494L43.9571 65.7537L45.0177 65.8368L46.0784 65.5103L47.139 65.1036L48.1997 64.2482L49.2603 57.8333L50.321 64.4666L51.3816 64.2291L52.4423 64.081L53.503 64.0872L54.5636 63.982L55.6243 63.8525L56.6849 63.4552L57.7456 62.7778L58.8062 61.5628L59.8669 61.0437L60.9275 60.9088L61.9882 60.474L63.0488 60.1619L64.1095 59.753L65.1702 59.7519L66.2308 60.0551L67.2915 60.2775L68.3521 60.1646L69.4128 59.8887L70.4734 58.913L71.5341 58.6466L72.5947 58.8811L73.6554 58.6914L74.7161 58.5324L75.7767 58.4834L76.8374 58.6751L77.898 58.5848L78.9587 58.5369L80.0193 58.7169L81.08 58.779L82.1406 58.9475L83.2013 59.4376L84.2619 60.4444L85.3226 60.6774L86.3833 60.5753L87.4439 60.8256L88.5046 60.6915L89.5652 60.3375L90.6259 60.2393L91.6865 59.6054L92.7472 59.068L93.8078 58.8823L94.8685 58.9851L95.9291 59.5633L96.9898 59.9853L98.0505 60.1552L99.1111 60.3866L100.172 60.7979L101.232 61.2317L102.293 61.3038L103.354 61.062L104.414 60.9508L105.475 60.793L106.536 60.7733L107.596 60.7587L108.657 60.7937L109.718 60.8717L110.778 60.9591L111.839 61.0067L112.9 60.0515L113.96 59.5231L115.021 59.262L116.082 59.221L117.142 58.9305L118.203 58.6907L119.264 58.5784L120.324 57.8418L121.385 57.5232L122.446 57.188L123.506 57.2203L124.567 57.2163L125.627 57.1015L126.688 57.0222L127.749 56.726L128.809 56.9071L129.87 56.9926L130.931 57.0981L131.991 56.9827L133.052 56.8906L134.113 46.685L135.173 46.3621L136.234 56.1085L137.295 55.5986L138.355 56.1321L139.416 56.746L140.477 57.0684L141.537 57.0865L142.598 57.3962L143.659 57.6345L144.719 57.6521L145.78 58.2501L146.841 58.2696L147.901 58.4129L148.962 58.3448L150.023 58.3025L151.083 58.0308L152.144 57.8811L153.205 57.7623L154.265 57.594L155.326 57.5881L156.386 56.9497L157.447 55.9258L158.508 55.1558L159.568 50.8425L160.629 49.8395L161.69 50.4549L162.75 50.9649L163.811 51.329L164.872 51.7717L165.932 52.222L166.993 52.3986L168.054 52.9865L169.114 53.3008L170.175 53.7487L171.236 54.2037L172.296 54.7171L173.357 55.1431L174.418 55.4468L175.478 55.6929L176.539 56.2104L177.6 56.7451" stroke="#FF3A33" stroke-width="1.64991"/>
</g>
</g>
</g>
<defs>
<clipPath id="clip0_243_1159">
<rect width="178.19" height="66" fill="white" transform="translate(0.470215)"/>
</clipPath>
<clipPath id="clip1_243_1159">
<rect width="178.19" height="66" fill="white" transform="translate(0.470215)"/>
</clipPath>
<clipPath id="clip2_243_1159">
<rect width="178.19" height="65.9963" fill="white" transform="translate(0.470215 0.00183105)"/>
</clipPath>
</defs>
</svg>
