<svg width="178" height="66" viewBox="0 0 178 66" fill="none" xmlns="http://www.w3.org/2000/svg">
<g clip-path="url(#clip0_243_1150)">
<path d="M0.25 35.7724L1.30601 36.6934L2.36202 36.4514L3.41804 37.5221L4.47405 37.5563L5.53006 37.7252L6.58607 36.5588L7.64208 36.0896L8.6981 34.8749L9.75411 33.1276L10.8101 33.8921L11.8661 34.498L12.9221 30.0782L13.9782 30.3417L15.0342 30.8688L16.0902 33.2839L17.1462 35.9407L18.2022 35.8457L19.2582 36.6237L20.3142 36.8516L21.3702 37.2547L22.4263 37.8232L23.4823 41.0256L24.5383 42.1369L25.5943 41.9396L26.6503 40.1026L27.7063 43.8453L28.7623 42.5108L29.8183 44.8754L30.8743 43.479L31.9304 41.8457L32.9864 42.2378L34.0424 41.9406L35.0984 42.4878L36.1544 44.7664L37.2104 47.4843L38.2664 43.7117L39.3224 40.7642L40.3785 40.8082L41.4345 39.4478L42.4905 39.9108L43.5465 38.7426L44.6025 41.7154L45.6585 45.5067L46.7145 51.044L47.7705 50.839L48.8266 56.7639L49.8826 59.9986L50.9386 57.6876L51.9946 53.3101L53.0506 56.1572L54.1066 52.9644L55.1626 55.9632L56.2186 55.4034L57.2746 59.2806L58.3307 64.606L59.3867 63.5974L60.4427 65.8536L61.4987 57.8237L62.5547 54.2321L63.6107 58.8887L64.6667 55.4395L65.7227 55.7651L66.7788 53.6567L67.8348 51.3295L68.8908 47.4873L69.9468 38.4289L71.0028 39.4323L72.0588 37.735L73.1148 36.7476L74.1708 26.8163L75.2268 30.7664L76.2829 27.7361L77.3389 29.2274L78.3949 28.2594L79.4509 29.1745L80.5069 26.9781L81.5629 26.8413L82.6189 28.8829L83.6749 26.5524L84.731 29.6491L85.787 30.1179L86.843 30.9705L87.899 40.2119L88.955 38.4021L90.011 40.1406L91.067 48.3725L92.123 42.957L93.1791 40.9025L94.2351 41.684L95.2911 38.0851L96.3471 40.8382L97.4031 41.3435L98.4591 38.8378L99.5151 40.583L100.571 39.1126L101.627 38.7936L102.683 30.8017L103.739 32.8817L104.795 30.7468L105.851 29.9647L106.907 30.5914L107.963 30.5499L109.019 29.3628L110.075 29.4278L111.131 27.9891L112.187 17.4213L113.243 15.8367L114.299 15.3529L115.355 22.7142L116.411 14.679L117.467 13.0939L118.523 19.127L119.579 25.9288L120.635 26.4697L121.691 21.7643L122.747 21.3388L123.803 22.0485L124.859 23.5445L125.915 23.994L126.971 20.218L128.027 19.914L129.083 22.3422L130.139 17.8082L131.195 17.643L132.251 17.8431L133.308 16.9373L134.364 11.4181L135.42 11.4989L136.476 9.64733L137.532 8.30311L138.588 15.8265L139.644 14.8578L140.7 16.2953L141.756 15.4845L142.812 14.6117L143.868 14.3671L144.924 11.17L145.98 8.22793L147.036 8.32938L148.092 8.95788L149.148 8.00719L150.204 3.58292L151.26 6.45842L152.316 6.4319L153.372 3.95234L154.428 3.4362L155.484 6.9951L156.54 12.3911L157.596 9.40378L158.652 6.58719L159.708 7.31278L160.764 6.12502L161.82 8.89748L162.876 6.78121L163.932 5.91642L164.988 5.18225L166.044 7.67826L167.1 4.67705L168.156 0.71107L169.212 6.35513L170.268 4.31056L171.324 3.9554L172.38 3.18919L173.436 0.14624L174.492 2.85616L175.548 6.97256L176.604 10.7006" stroke="#32CA5B" stroke-width="1.64269"/>
</g>
<defs>
<clipPath id="clip0_243_1150">
<rect width="177.41" height="65.7074" fill="white" transform="translate(0.25 0.14624)"/>
</clipPath>
</defs>
</svg>
