<svg width="33" height="31" viewBox="0 0 33 31" fill="none" xmlns="http://www.w3.org/2000/svg">
<path d="M16.5 30.7998C24.094 30.7998 30.25 24.6437 30.25 17.0498C30.25 9.45589 24.094 3.2998 16.5 3.2998C8.90608 3.2998 2.75 9.45589 2.75 17.0498C2.75 24.6437 8.90608 30.7998 16.5 30.7998Z" fill="url(#paint0_linear_283_60)"/>
<path d="M13.9792 26.56C13.9792 26.9039 13.75 27.0184 13.4062 27.0184C9.16667 25.6434 6.1875 21.7476 6.1875 17.1642C6.1875 12.5809 9.16667 8.68508 13.4062 7.31008C13.75 7.1955 13.9792 7.42466 13.9792 7.76842V8.57049C13.9792 8.79966 13.8645 9.02883 13.6354 9.14341C10.3125 10.4038 8.02084 13.4976 8.02084 17.1642C8.02084 20.8309 10.4271 24.0393 13.6354 25.1851C13.8645 25.2996 13.9792 25.5288 13.9792 25.758V26.56Z" fill="white"/>
<path d="M17.4167 23.6958C17.4167 23.925 17.1876 24.1542 16.9585 24.1542H16.0418C15.8126 24.1542 15.5835 23.925 15.5835 23.6958V22.3208C13.7501 22.0917 12.8335 21.0604 12.4897 19.5708C12.4897 19.3416 12.6043 19.1125 12.8335 19.1125H13.8647C14.0939 19.1125 14.2084 19.227 14.323 19.4562C14.5522 20.2583 15.0105 20.9458 16.5002 20.9458C17.646 20.9458 18.448 20.3729 18.448 19.4562C18.448 18.5395 17.9897 18.1958 16.3855 17.9667C13.9793 17.6228 12.8335 16.9354 12.8335 14.9875C12.8335 13.4978 13.9793 12.352 15.5835 12.1229V10.7479C15.5835 10.5187 15.8126 10.2896 16.0418 10.2896H16.9585C17.1876 10.2896 17.4167 10.5187 17.4167 10.7479V12.1229C18.7918 12.352 19.7085 13.1541 19.9376 14.4145C19.9376 14.6438 19.8231 14.8729 19.5939 14.8729H18.6772C18.448 14.8729 18.3334 14.7583 18.2189 14.5291C17.9897 13.7271 17.4167 13.3833 16.3855 13.3833C15.2397 13.3833 14.6668 13.9562 14.6668 14.7583C14.6668 15.5603 15.0105 16.0187 16.7293 16.2479C19.1355 16.5916 20.2814 17.2791 20.2814 19.227C20.2814 20.7166 19.1355 21.9771 17.4167 22.3208V23.6958Z" fill="white"/>
<path d="M19.5935 27.0189C19.2498 27.1335 19.0205 26.9043 19.0205 26.5605V25.7585C19.0205 25.5293 19.1351 25.3001 19.3643 25.1856C22.6872 23.9252 24.9789 20.8314 24.9789 17.1647C24.9789 13.4981 22.5726 10.2897 19.3643 9.14388C19.1351 9.0293 19.0205 8.80014 19.0205 8.57097V7.76889C19.0205 7.42514 19.2498 7.31055 19.5935 7.31055C23.7185 8.68555 26.8122 12.5814 26.8122 17.1647C26.8122 21.7481 23.833 25.6438 19.5935 27.0189Z" fill="white"/>
<defs>
<linearGradient id="paint0_linear_283_60" x1="10.2531" y1="2.95583" x2="24.5255" y2="30.3149" gradientUnits="userSpaceOnUse">
<stop stop-color="#0666CE"/>
<stop offset="1" stop-color="#61A9F8"/>
</linearGradient>
</defs>
</svg>
